<?xml version="1.0" encoding="UTF-8" standalone="no"?>
<!-- Created with Inkscape (http://www.inkscape.org/) -->

<svg
   xmlns:dc="http://purl.org/dc/elements/1.1/"
   xmlns:cc="http://creativecommons.org/ns#"
   xmlns:rdf="http://www.w3.org/1999/02/22-rdf-syntax-ns#"
   xmlns:svg="http://www.w3.org/2000/svg"
   xmlns="http://www.w3.org/2000/svg"
   xmlns:sodipodi="http://sodipodi.sourceforge.net/DTD/sodipodi-0.dtd"
   xmlns:inkscape="http://www.inkscape.org/namespaces/inkscape"
   width="206.43271"
   height="276.6922"
   id="svg2"
   version="1.1"
   inkscape:version="0.48.3.1 r9886"
   sodipodi:docname="unknown_mime_type.svg">
  <defs
     id="defs4">
    <inkscape:perspective
       sodipodi:type="inkscape:persp3d"
       inkscape:vp_x="0 : 0.5 : 1"
       inkscape:vp_y="0 : 1000 : 0"
       inkscape:vp_z="1 : 0.5 : 1"
       inkscape:persp3d-origin="0.5 : 0.33333333 : 1"
       id="perspective2840" />
    <inkscape:perspective
       id="perspective10"
       inkscape:persp3d-origin="81.25 : 54.166667 : 1"
       inkscape:vp_z="162.5 : 81.25 : 1"
       inkscape:vp_y="0 : 1000 : 0"
       inkscape:vp_x="0 : 81.25 : 1"
       sodipodi:type="inkscape:persp3d" />
  </defs>
  <sodipodi:namedview
     id="base"
     pagecolor="#ffffff"
     bordercolor="#666666"
     borderopacity="1.0"
     inkscape:pageopacity="0.0"
     inkscape:pageshadow="2"
     inkscape:zoom="1.9505793"
     inkscape:cx="111.40322"
     inkscape:cy="125.24754"
     inkscape:document-units="px"
     inkscape:current-layer="layer1"
     showgrid="false"
     fit-margin-top="10"
     fit-margin-left="10"
     fit-margin-right="10"
     fit-margin-bottom="10"
     inkscape:window-width="1855"
     inkscape:window-height="1056"
     inkscape:window-x="65"
     inkscape:window-y="24"
     inkscape:window-maximized="1" />
  <metadata
     id="metadata7">
    <rdf:RDF>
      <cc:Work
         rdf:about="">
        <dc:format>image/svg+xml</dc:format>
        <dc:type
           rdf:resource="http://purl.org/dc/dcmitype/StillImage" />
        <dc:title></dc:title>
      </cc:Work>
    </rdf:RDF>
  </metadata>
  <g
     inkscape:label="Layer 1"
     inkscape:groupmode="layer"
     id="layer1"
     transform="translate(-0.802584,-4.798999)">
    <path
       id="path2824"
       d="m 113.27587,14.798999 -96.612776,0 c -1.54124,0 -3.063448,0.599365 -4.148025,1.712477 -1.07506,1.084583 -1.712485,2.606786 -1.712485,4.157535 l 0,244.980729 c 0,1.54122 0.59937,3.01586 1.712485,4.1385 1.113117,1.1036 2.578245,1.70297 4.148025,1.70297 l 174.711706,0 c 1.54122,0 3.01588,-0.58984 4.12899,-1.70297 1.11309,-1.11313 1.73151,-2.58777 1.73151,-4.1385 l 0,-163.01921 c 0,-34.743121 -56.93081,-87.831531 -83.95943,-87.831531 z m 71.4717,248.961681 -160.747662,0 c -5.60694,0.11558 -5.495332,0.11556 -5.495332,-5.31492 l 0,-229.314927 c -0.04072,-6.845799 0.120853,-6.629847 7.390407,-6.629847 l 87.390407,0 0,0.01905 c 11.2636,0 12.6842,41.725748 5.57007,68.276031 25.55767,-6.848156 70.64914,-7.362897 70.64914,11.843993 l 0,156.56031 c 0.10555,4.58101 -0.0319,4.56031 -4.75703,4.56031 z"
       style="fill:#cccccc;fill-opacity:1;stroke:none"
       inkscape:connector-curvature="0"
       sodipodi:nodetypes="cscsscssssccccccccccccc" />
    <g
       style="font-size:211.29768372px;font-style:normal;font-variant:normal;font-weight:normal;font-stretch:normal;text-align:start;line-height:125%;letter-spacing:0px;word-spacing:0px;writing-mode:lr-tb;text-anchor:start;fill:#000000;fill-opacity:1;stroke:none;font-family:Sans;-inkscape-font-specification:Sans"
       id="text2998">
      <path
         d="m 131.31548,153.11874 -50.245102,61.07824 c 2.820008,2.88885 5.983968,5.02108 9.491889,6.3967 3.576597,1.37565 7.600328,2.06347 12.071203,2.06346 10.11085,1e-5 18.12392,-3.98933 24.03924,-11.96803 5.91514,-7.97866 8.87275,-18.84617 8.87285,-32.60258 -1e-4,-5.4337 -0.344,-10.14524 -1.03172,-14.13466 -0.68792,-4.05805 -1.75404,-7.66909 -3.19836,-10.83313 m -7.32526,-11.14265 c -2.88892,-2.81996 -6.12166,-4.9178 -9.69823,-6.29354 -3.50795,-1.44431 -7.39412,-2.16652 -11.65852,-2.16662 -10.386104,1e-4 -18.502348,4.05822 -24.348754,12.17438 -5.777706,8.04755 -8.666539,19.32775 -8.666507,33.84064 -3.2e-5,4.95234 0.309486,9.31998 0.928554,13.10293 0.687785,3.78304 1.719511,7.25652 3.095181,10.42045 L 123.99022,141.97609 M 60.745357,218.6334 c -3.714236,-5.29617 -6.499896,-11.31457 -8.356988,-18.05522 -1.857122,-6.80935 -2.785675,-14.30656 -2.785663,-22.49165 -1.2e-5,-18.9837 4.677146,-33.84055 14.031487,-44.5706 9.423071,-10.72985 22.422818,-16.09482 38.999277,-16.09494 6.39664,1.2e-4 12.31187,0.89428 17.74571,2.68249 5.50245,1.71966 10.55791,4.36775 15.16638,7.9443 l 14.34101,-17.33302 9.8014,8.15064 -15.06321,18.46792 c 3.64532,5.29629 6.39659,11.34908 8.25382,18.15839 1.85699,6.80947 2.78554,14.34107 2.78566,22.59482 -1.2e-4,18.91504 -4.71167,33.77189 -14.13466,44.57061 -9.4232,10.72996 -22.38856,16.09494 -38.89611,16.09494 -6.603109,0 -12.690292,-0.89417 -18.261565,-2.68249 -5.502585,-1.78833 -10.420479,-4.43642 -14.753696,-7.9443 L 55.277204,245.4583 45.372625,237.41083 60.745357,218.6334"
         style="fill:#cccccc;fill-opacity:1"
         id="path3003" />
    </g>
  </g>
</svg>
