<?xml version="1.0" encoding="UTF-8" standalone="no"?>
<!-- Created with Inkscape (http://www.inkscape.org/) -->
<svg id="svg2" xmlns:rdf="http://www.w3.org/1999/02/22-rdf-syntax-ns#" xmlns="http://www.w3.org/2000/svg" height="276.69" width="206.43" version="1.1" xmlns:cc="http://creativecommons.org/ns#" xmlns:dc="http://purl.org/dc/elements/1.1/">
 <defs id="defs4"></defs>
 <metadata id="metadata7">
  <rdf:RDF>
   <cc:Work rdf:about="">
    <dc:format>image/svg+xml</dc:format>
    <dc:type rdf:resource="http://purl.org/dc/dcmitype/StillImage"/>
    <dc:title/>
   </cc:Work>
  </rdf:RDF>
 </metadata>
 <g id="layer1" transform="translate(-0.802584,-4.798999)">
  <path id="path2824" fill="#CCC" d="m113.28,14.799-96.613,0c-1.5412,0-3.0634,0.59936-4.148,1.7125-1.0751,1.0846-1.7125,2.6068-1.7125,4.1575v244.98c0,1.5412,0.59937,3.0159,1.7125,4.1385,1.1131,1.1036,2.5782,1.703,4.148,1.703h174.71c1.5412,0,3.0159-0.58984,4.129-1.703,1.1131-1.1131,1.7315-2.5878,1.7315-4.1385v-163.02c0-34.743-56.931-87.832-83.959-87.832zm71.472,248.96-160.75,0c-5.6069,0.11558-5.4953,0.11556-5.4953-5.3149v-229.31c-0.04072-6.8458,0.12085-6.6298,7.3904-6.6298h87.39v0.01905c11.264,0,12.684,41.726,5.5701,68.276,25.558-6.8482,70.649-7.3629,70.649,11.844v156.56c0.10555,4.581-0.0319,4.5603-4.757,4.5603z"/>
  <g id="text2998" style="writing-mode:lr-tb;letter-spacing:0px;text-anchor:start;word-spacing:0px;text-align:start;" font-weight="normal" font-size="211.29768372px" font-stretch="normal" font-variant="normal" font-style="normal" font-family="Sans" line-height="125%" fill="#000">
   <path id="path3003" fill="#CCC" d="m131.32,153.12-50.245,61.078c2.82,2.8888,5.984,5.0211,9.4919,6.3967,3.5766,1.3756,7.6003,2.0635,12.071,2.0635,10.111,0.00001,18.124-3.9893,24.039-11.968,5.9151-7.9787,8.8728-18.846,8.8728-32.603-0.0001-5.4337-0.344-10.145-1.0317-14.135-0.68792-4.058-1.754-7.6691-3.1984-10.833m-7.3253-11.143c-2.8889-2.82-6.1217-4.9178-9.6982-6.2935-3.508-1.4443-7.3941-2.1665-11.659-2.1666-10.386,0.0001-18.502,4.0582-24.349,12.174-5.7777,8.0476-8.6665,19.328-8.6665,33.841-0.000032,4.9523,0.30949,9.32,0.92855,13.103,0.68778,3.783,1.7195,7.2565,3.0952,10.42l50.352-61.08m-63.245,76.65c-3.7142-5.2962-6.4999-11.315-8.357-18.055-1.8571-6.8094-2.7857-14.307-2.7857-22.492-0.000012-18.984,4.6771-33.841,14.031-44.571,9.4231-10.73,22.423-16.095,38.999-16.095,6.3966,0.00012,12.312,0.89428,17.746,2.6825,5.5024,1.7197,10.558,4.3678,15.166,7.9443l14.341-17.333,9.8014,8.1506-15.063,18.468c3.6453,5.2963,6.3966,11.349,8.2538,18.158,1.857,6.8095,2.7855,14.341,2.7857,22.595-0.00012,18.915-4.7117,33.772-14.135,44.571-9.4232,10.73-22.389,16.095-38.896,16.095-6.6031,0-12.69-0.89417-18.262-2.6825-5.5026-1.7883-10.42-4.4364-14.754-7.9443l-14.347,17.34-9.904-8.05,15.372-18.78"/>
  </g>
 </g>
</svg>
