<?xml version="1.0" encoding="UTF-8" standalone="no"?>
<!-- Created with Inkscape (http://www.inkscape.org/) -->

<svg
   xmlns:dc="http://purl.org/dc/elements/1.1/"
   xmlns:cc="http://creativecommons.org/ns#"
   xmlns:rdf="http://www.w3.org/1999/02/22-rdf-syntax-ns#"
   xmlns:svg="http://www.w3.org/2000/svg"
   xmlns="http://www.w3.org/2000/svg"
   xmlns:xlink="http://www.w3.org/1999/xlink"
   xmlns:sodipodi="http://sodipodi.sourceforge.net/DTD/sodipodi-0.dtd"
   xmlns:inkscape="http://www.inkscape.org/namespaces/inkscape"
   width="960"
   height="300"
   id="svg2"
   version="1.1"
   inkscape:version="0.48.3.1 r9886"
   sodipodi:docname="logo.svg">
  <defs
     id="defs4">
    <linearGradient
       inkscape:collect="always"
       id="linearGradient3777">
      <stop
         style="stop-color:#407a40;stop-opacity:1;"
         offset="0"
         id="stop3779" />
      <stop
         style="stop-color:#213050;stop-opacity:1"
         offset="1"
         id="stop3781" />
    </linearGradient>
    <linearGradient
       inkscape:collect="always"
       xlink:href="#linearGradient3777"
       id="linearGradient3783"
       x1="527.96405"
       y1="57.421913"
       x2="527.96405"
       y2="275.88098"
       gradientUnits="userSpaceOnUse"
       gradientTransform="translate(0,-1052.3622)" />
  </defs>
  <sodipodi:namedview
     id="base"
     pagecolor="#ffffff"
     bordercolor="#666666"
     borderopacity="1.0"
     inkscape:pageopacity="0.0"
     inkscape:pageshadow="2"
     inkscape:zoom="0.98112738"
     inkscape:cx="512.45174"
     inkscape:cy="62.481604"
     inkscape:document-units="px"
     inkscape:current-layer="layer1"
     showgrid="false"
     inkscape:snap-page="false"
     inkscape:snap-bbox="true"
     inkscape:window-width="1855"
     inkscape:window-height="1056"
     inkscape:window-x="65"
     inkscape:window-y="24"
     inkscape:window-maximized="1" />
  <metadata
     id="metadata7">
    <rdf:RDF>
      <cc:Work
         rdf:about="">
        <dc:format>image/svg+xml</dc:format>
        <dc:type
           rdf:resource="http://purl.org/dc/dcmitype/StillImage" />
        <dc:title />
      </cc:Work>
    </rdf:RDF>
  </metadata>
  <g
     inkscape:label="Layer 1"
     inkscape:groupmode="layer"
     id="layer1"
     transform="translate(0,-752.36218)">
    <rect
       style="fill:url(#linearGradient3783);fill-opacity:1;stroke:none"
       id="rect2985"
       width="960"
       height="300"
       x="0"
       y="-1052.3622"
       transform="scale(1,-1)" />
    <g
       id="g3912"
       transform="translate(-2.5857285,63.11648)">
      <g
         transform="translate(6,-53.667885)"
         id="text3755"
         style="font-size:157.33911133px;font-style:normal;font-variant:normal;font-weight:normal;font-stretch:normal;text-align:start;line-height:125%;letter-spacing:0px;word-spacing:0px;writing-mode:lr-tb;text-anchor:start;fill:#ffffff;fill-opacity:1;stroke:none;font-family:Sawasdee;-inkscape-font-specification:Sawasdee">
        <path
           inkscape:connector-curvature="0"
           id="path3762"
           d="m 98.245222,894.5208 -6.530188,2.22795 c -1.792666,-5.48014 -4.763258,-9.62872 -8.911785,-12.44577 -4.097427,-2.81684 -8.578924,-4.22531 -13.444504,-4.22541 -5.890013,10e-5 -10.704421,1.89514 -14.443239,5.6851 -3.687663,3.79017 -5.531478,8.42532 -5.531453,13.90546 -2.5e-5,2.81703 0.640188,5.37788 1.920643,7.68257 1.280401,2.30485 2.996174,4.27671 5.147325,5.91558 2.151086,1.63903 4.609507,3.17554 7.375271,4.60955 2.816901,1.38293 5.761884,2.71458 8.834959,3.99494 3.124195,1.28049 6.22283,2.63775 9.295915,4.07176 3.124185,1.38293 6.069169,2.99626 8.83496,4.84002 2.816874,1.84388 5.300904,3.89256 7.452096,6.14606 2.151048,2.25361 3.866818,5.01933 5.147328,8.29718 1.28035,3.27794 1.92056,6.91435 1.92064,10.90926 -8e-5,6.65825 -1.71585,12.62505 -5.14732,17.90039 -3.431627,5.27538 -7.887515,9.29592 -13.367683,12.06164 -5.480293,2.76573 -11.395869,4.14859 -17.746745,4.14859 -4.148631,0 -8.117957,-0.66582 -11.90799,-1.99747 -3.790099,-1.33164 -7.324079,-3.3035 -10.601951,-5.91558 -3.277918,-2.66328 -6.06925,-6.19726 -8.374006,-10.60195 -2.304784,-4.40465 -3.815688,-9.44954 -4.532718,-15.13467 l 6.83749,-0.84508 c 1.280412,9.21911 4.558306,16.10781 9.833695,20.66612 5.326553,4.50712 11.57504,6.76067 18.74548,6.76067 5.070448,0 9.808031,-1.04995 14.212761,-3.14986 4.404612,-2.15111 8.015418,-5.32657 10.832429,-9.52639 2.868088,-4.251 4.302167,-9.11663 4.302242,-14.59689 -7.5e-5,-3.43151 -0.640288,-6.53015 -1.920644,-9.29592 -1.2805,-2.76568 -2.996273,-5.09606 -5.147324,-6.99114 -2.151186,-1.89498 -4.635216,-3.63636 -7.452097,-5.22415 -2.765783,-1.58767 -5.710767,-3.02175 -8.83496,-4.30224 -3.073077,-1.33158 -6.171712,-2.66323 -9.295914,-3.99494 -3.073068,-1.33158 -6.018052,-2.81688 -8.83496,-4.45589 -2.765756,-1.63888 -5.224178,-3.43148 -7.375271,-5.3778 -2.151144,-1.94618 -3.866917,-4.32777 -5.147324,-7.1448 -1.280448,-2.86807 -1.920662,-6.06914 -1.920644,-9.60321 -1.8e-5,-7.37518 2.50962,-13.64927 7.528923,-18.82231 5.01925,-5.22404 11.472606,-7.83611 19.360086,-7.83622 6.146007,1.1e-4 11.907932,1.92075 17.285791,5.76193 5.428951,3.79017 9.295842,9.09114 11.600686,15.90292" />
        <path
           inkscape:connector-curvature="0"
           id="path3766"
           d="m 225.69912,988.93964 -6.76066,0 21.97216,-116.08369 41.87003,99.56615 42.56146,-99.56615 21.35755,116.08369 -7.22162,0 -16.82484,-92.19089 -40.33351,93.49692 -39.1043,-93.49692 -17.51627,92.19089" />
        <path
           inkscape:connector-curvature="0"
           id="path3768"
           d="m 362.14163,988.93964 0,-114.85448 40.71765,0 c 8.2459,1.1e-4 15.23703,2.97071 20.97342,8.91178 5.73624,5.94129 8.6044,13.08608 8.60449,21.43438 -9e-5,8.45091 -2.86825,15.67252 -8.60449,21.66486 -5.68517,5.99247 -12.59948,8.98867 -20.74295,8.98861 l -34.0338,0 0,53.85485 -6.91432,0 m 6.91432,-61.07647 34.0338,0 c 6.09479,7e-5 11.31893,-2.2791 15.67245,-6.83749 4.40461,-4.55825 6.60694,-10.0897 6.60702,-16.59436 -8e-5,-6.50448 -2.20241,-12.03593 -6.60702,-16.59435 -4.40474,-4.60944 -9.70571,-6.91421 -15.90292,-6.91432 l -33.80333,0 0,46.94052" />
        <path
           inkscape:connector-curvature="0"
           id="path3770"
           d="m 521.32457,988.93964 -66.68474,0 0,-114.70083 6.91432,0 0,107.78651 59.77042,0 0,6.91432" />
        <path
           inkscape:connector-curvature="0"
           id="path3772"
           d="m 600.7624,918.87456 0,6.91432 -55.00723,0 0,56.23644 59.46312,0 0,6.91432 -66.37744,0 0,-114.70083 66.68474,0 0,6.91432 -59.77042,0 0,37.72143 55.00723,0" />
        <path
           inkscape:connector-curvature="0"
           id="path3774"
           d="m 684.27196,894.5208 -6.53019,2.22795 c -1.79267,-5.48014 -4.76326,-9.62872 -8.91179,-12.44577 -4.09743,-2.81684 -8.57892,-4.22531 -13.4445,-4.22541 -5.89001,10e-5 -10.70442,1.89514 -14.44324,5.6851 -3.68766,3.79017 -5.53148,8.42532 -5.53145,13.90546 -3e-5,2.81703 0.64018,5.37788 1.92064,7.68257 1.2804,2.30485 2.99617,4.27671 5.14732,5.91558 2.15109,1.63903 4.60951,3.17554 7.37528,4.60955 2.8169,1.38293 5.76188,2.71458 8.83495,3.99494 3.1242,1.28049 6.22283,2.63775 9.29592,4.07176 3.12418,1.38293 6.06917,2.99626 8.83496,4.84002 2.81687,1.84388 5.3009,3.89256 7.4521,6.14606 2.15104,2.25361 3.86681,5.01933 5.14732,8.29718 1.28035,3.27794 1.92056,6.91435 1.92064,10.90926 -8e-5,6.65825 -1.71585,12.62505 -5.14732,17.90039 -3.43162,5.27538 -7.88751,9.29592 -13.36768,12.06164 -5.48029,2.76573 -11.39587,4.14859 -17.74674,4.14859 -4.14864,0 -8.11796,-0.66582 -11.90799,-1.99747 -3.7901,-1.33164 -7.32408,-3.3035 -10.60196,-5.91558 -3.27791,-2.66328 -6.06925,-6.19726 -8.374,-10.60195 -2.30479,-4.40465 -3.81569,-9.44954 -4.53272,-15.13467 l 6.83749,-0.84508 c 1.28041,9.21911 4.55831,16.10781 9.8337,20.66612 5.32655,4.50712 11.57504,6.76067 18.74548,6.76067 5.07044,0 9.80803,-1.04995 14.21276,-3.14986 4.40461,-2.15111 8.01541,-5.32657 10.83243,-9.52639 2.86808,-4.251 4.30216,-9.11663 4.30224,-14.59689 -8e-5,-3.43151 -0.64029,-6.53015 -1.92065,-9.29592 -1.2805,-2.76568 -2.99627,-5.09606 -5.14732,-6.99114 -2.15119,-1.89498 -4.63522,-3.63636 -7.4521,-5.22415 -2.76578,-1.58767 -5.71076,-3.02175 -8.83496,-4.30224 -3.07307,-1.33158 -6.17171,-2.66323 -9.29591,-3.99494 -3.07307,-1.33158 -6.01805,-2.81688 -8.83496,-4.45589 -2.76576,-1.63888 -5.22418,-3.43148 -7.37527,-5.3778 -2.15115,-1.94618 -3.86692,-4.32777 -5.14733,-7.1448 -1.28044,-2.86807 -1.92066,-6.06914 -1.92064,-9.60321 -2e-5,-7.37518 2.50962,-13.64927 7.52892,-18.82231 5.01925,-5.22404 11.47261,-7.83611 19.36009,-7.83622 6.14601,1.1e-4 11.90793,1.92075 17.28579,5.76193 5.42895,3.79017 9.29584,9.09114 11.60069,15.90292" />
      </g>
      <g
         transform="translate(6,-56)"
         id="text3776"
         style="font-size:72px;font-style:normal;font-variant:normal;font-weight:bold;font-stretch:normal;text-align:start;line-height:125%;letter-spacing:0px;word-spacing:0px;writing-mode:lr-tb;text-anchor:start;fill:#ffffff;fill-opacity:1;stroke:none;font-family:Ubuntu;-inkscape-font-specification:Ubuntu Bold">
        <path
           id="path3781"
           d="m 709.57743,972.41778 c -1e-5,3.31202 0.74399,5.97602 2.232,7.992 1.48798,2.01601 3.69598,3.02401 6.624,3.024 0.95998,1e-5 1.84798,-0.024 2.664,-0.072 0.81598,-0.096 1.48798,-0.19199 2.016,-0.288 l 0,-19.512 c -0.67202,-0.43197 -1.56002,-0.79197 -2.664,-1.08 -1.05602,-0.28797 -2.13602,-0.43197 -3.24,-0.432 -5.08801,3e-5 -7.63201,3.45603 -7.632,10.368 m 24.264,18 c -0.96003,0.28801 -2.06403,0.57601 -3.312,0.864 -1.24803,0.24 -2.56803,0.456 -3.96,0.648 -1.34403,0.192 -2.73603,0.336 -4.176,0.432 -1.39202,0.144 -2.73602,0.216 -4.032,0.216 -3.12002,0 -5.90401,-0.456 -8.352,-1.368 -2.44801,-0.91199 -4.51201,-2.20799 -6.192,-3.888 -1.68,-1.72799 -2.976,-3.79199 -3.888,-6.192 -0.864,-2.44798 -1.296,-5.18398 -1.296,-8.208 0,-3.07197 0.384,-5.83197 1.152,-8.28 0.768,-2.49597 1.872,-4.60796 3.312,-6.336 1.43999,-1.72796 3.19199,-3.04796 5.256,-3.96 2.11199,-0.91196 4.51199,-1.36796 7.2,-1.368 1.48798,4e-5 2.80798,0.14404 3.96,0.432 1.19998,0.28804 2.39998,0.69604 3.6,1.224 l 0,-17.136 10.728,-1.728 0,54.648"
           inkscape:connector-curvature="0" />
        <path
           id="path3783"
           d="m 768.15056,972.41778 c -3e-5,-6.91197 -2.54403,-10.36797 -7.632,-10.368 -1.10402,3e-5 -2.20802,0.14403 -3.312,0.432 -1.05602,0.28803 -1.92002,0.64803 -2.592,1.08 l 0,19.512 c 0.52798,0.096 1.19998,0.19201 2.016,0.288 0.81598,0.048 1.70398,0.072 2.664,0.072 2.92797,1e-5 5.13597,-1.00799 6.624,-3.024 1.48797,-2.01598 2.23197,-4.67998 2.232,-7.992 m 10.944,0.288 c -4e-5,3.02402 -0.45604,5.76002 -1.368,8.208 -0.86404,2.44801 -2.13604,4.53601 -3.816,6.264 -1.68004,1.72801 -3.74403,3.07201 -6.192,4.032 -2.44803,0.912 -5.23203,1.368 -8.352,1.368 -1.29602,0 -2.66402,-0.072 -4.104,-0.216 -1.39202,-0.096 -2.78402,-0.24 -4.176,-0.432 -1.34401,-0.192 -2.64001,-0.408 -3.888,-0.648 -1.24801,-0.28799 -2.35201,-0.57599 -3.312,-0.864 l 0,-52.92 10.728,-1.728 0,18.864 c 1.19998,-0.52796 2.44798,-0.93596 3.744,-1.224 1.29598,-0.28796 2.68798,-0.43196 4.176,-0.432 2.68797,4e-5 5.06397,0.48004 7.128,1.44 2.06396,0.91204 3.79196,2.23204 5.184,3.96 1.39196,1.72804 2.44796,3.81603 3.168,6.264 0.71996,2.40003 1.07996,5.08803 1.08,8.064"
           inkscape:connector-curvature="0" />
      </g>
      <g
         id="g3906">
        <path
           style="font-size:medium;font-style:normal;font-variant:normal;font-weight:normal;font-stretch:normal;text-indent:0;text-align:start;text-decoration:none;line-height:normal;letter-spacing:normal;word-spacing:normal;text-transform:none;direction:ltr;block-progression:tb;writing-mode:lr-tb;text-anchor:start;baseline-shift:baseline;color:#000000;fill:#ffffff;fill-opacity:1;stroke:none;stroke-width:6;marker:none;visibility:visible;display:inline;overflow:visible;enable-background:accumulate;font-family:Sans;-inkscape-font-specification:Sans"
           d="m 151.4375,795.1875 c -1.64112,-0.22974 -3.18223,0.0599 -4.3125,0.65625 -2.26054,1.19267 -3.34375,3.125 -3.34375,3.125 l 5.125,3.125 c 0,0 0.50423,-0.65944 1.03125,-0.9375 0.37302,-0.19681 0.719,-0.22746 1.40625,0.1875 l 0,36.65625 -46.375,94.25 a 3.0003,3.0003 0 0 0 2.6875,4.3125 l 110.6875,0 a 3.0003,3.0003 0 0 0 2.6875,-4.3125 l -46.375,-94.25 0,-36.6875 c 0.65883,-0.38497 1.03509,-0.35125 1.40625,-0.15625 0.53255,0.27979 1.03125,0.9375 1.03125,0.9375 l 5.09375,-3.15625 c 0,0 -1.08443,-1.90675 -3.34375,-3.09375 -2.25932,-1.187 -6.13382,-1.09814 -9.21875,1.71875 a 3.0003,3.0003 0 0 0 -0.96875,2.21875 l 0,38.90625 a 3.0003,3.0003 0 0 0 0.3125,1.34375 l 44.5625,90.53125 -101.0625,0 44.5625,-90.53125 a 3.0003,3.0003 0 0 0 0.3125,-1.34375 l 0,-38.90625 A 3.0003,3.0003 0 0 0 156.375,797.5625 c -1.54558,-1.41129 -3.29638,-2.14526 -4.9375,-2.375 z"
           id="path3773"
           inkscape:connector-curvature="0" />
        <path
           style="font-size:medium;font-style:normal;font-variant:normal;font-weight:normal;font-stretch:normal;text-indent:0;text-align:start;text-decoration:none;line-height:normal;letter-spacing:normal;word-spacing:normal;text-transform:none;direction:ltr;block-progression:tb;writing-mode:lr-tb;text-anchor:start;baseline-shift:baseline;color:#000000;fill:#ffffff;fill-opacity:1;stroke:none;stroke-width:5;marker:none;visibility:visible;display:inline;overflow:visible;enable-background:accumulate;font-family:Sans;-inkscape-font-specification:Sans"
           d="m 126.03125,913.9375 a 2.503123,2.503123 0 1 0 0.25,5 l 22.0625,0 a 2.50025,2.50025 0 1 0 0,-5 l -22.0625,0 a 2.50025,2.50025 0 0 0 -0.25,0 z"
           id="path3785"
           inkscape:connector-curvature="0" />
        <path
           style="font-size:medium;font-style:normal;font-variant:normal;font-weight:normal;font-stretch:normal;text-indent:0;text-align:start;text-decoration:none;line-height:normal;letter-spacing:normal;word-spacing:normal;text-transform:none;direction:ltr;block-progression:tb;writing-mode:lr-tb;text-anchor:start;baseline-shift:baseline;color:#000000;fill:#ffffff;fill-opacity:1;stroke:none;stroke-width:5;marker:none;visibility:visible;display:inline;overflow:visible;enable-background:accumulate;font-family:Sans;-inkscape-font-specification:Sans"
           d="M 148.34375,902.71875 131.75,902.75 a 2.50025,2.50025 0 1 0 0,5 l 16.59375,-0.0312 a 2.50025,2.50025 0 1 0 0,-5 z"
           id="path3787"
           inkscape:connector-curvature="0" />
        <path
           style="font-size:medium;font-style:normal;font-variant:normal;font-weight:normal;font-stretch:normal;text-indent:0;text-align:start;text-decoration:none;line-height:normal;letter-spacing:normal;word-spacing:normal;text-transform:none;direction:ltr;block-progression:tb;writing-mode:lr-tb;text-anchor:start;baseline-shift:baseline;color:#000000;fill:#ffffff;fill-opacity:1;stroke:none;stroke-width:5;marker:none;visibility:visible;display:inline;overflow:visible;enable-background:accumulate;font-family:Sans;-inkscape-font-specification:Sans"
           d="m 137.0625,891.5 a 2.503123,2.503123 0 1 0 0.25,5 l 11.03125,0 a 2.50025,2.50025 0 1 0 0,-5 l -11.03125,0 a 2.50025,2.50025 0 0 0 -0.25,0 z"
           id="path3789"
           inkscape:connector-curvature="0" />
      </g>
      <g
         id="text3829"
         style="font-size:76px;font-style:italic;font-variant:normal;font-weight:normal;font-stretch:normal;text-align:start;line-height:125%;letter-spacing:0px;word-spacing:0px;writing-mode:lr-tb;text-anchor:start;fill:#ffffff;fill-opacity:0.50196078;stroke:none;font-family:Georgia;-inkscape-font-specification:Georgia Italic">
        <path
           id="path3836"
           d="m 804.04059,930.63843 c -2e-5,1.38542 -0.50718,2.57292 -1.52149,3.5625 -0.98959,0.96484 -2.17709,1.44726 -3.5625,1.44726 -1.38542,0 -2.58529,-0.48242 -3.59961,-1.44726 -0.98958,-0.98958 -1.48438,-2.17708 -1.48437,-3.5625 -10e-6,-1.38541 0.49479,-2.57291 1.48437,-3.5625 1.01432,-1.01432 2.21419,-1.52148 3.59961,-1.52149 1.38541,10e-6 2.57291,0.50717 3.5625,1.52149 1.01431,0.98959 1.52147,2.17709 1.52149,3.5625"
           inkscape:connector-curvature="0" />
        <path
           id="path3838"
           d="m 848.0152,912.04663 c -4e-5,2.91929 -0.49483,5.83856 -1.48438,8.75781 -0.98962,2.91929 -2.42451,5.47983 -4.30468,7.68164 -1.90498,2.27605 -4.20576,4.10678 -6.90235,5.49219 -2.6719,1.36068 -5.77671,2.04102 -9.31445,2.04102 -4.10678,0 -7.44663,-1.32357 -10.01953,-3.97071 -2.54818,-2.64713 -3.82227,-6.20962 -3.82227,-10.6875 0,-3.29034 0.54427,-6.35805 1.63281,-9.20312 1.08854,-2.84503 2.54817,-5.34372 4.37891,-7.49609 1.85546,-2.15232 4.14387,-3.88409 6.86523,-5.19532 2.74608,-1.3359 5.71483,-2.00387 8.90625,-2.0039 4.40362,3e-5 7.84242,1.34834 10.31641,4.04492 2.49866,2.6719 3.74801,6.18492 3.74805,10.53906 m -7.57031,-1.41016 c -4e-5,-3.51299 -0.63089,-6.14775 -1.89258,-7.90429 -1.23701,-1.75648 -3.03063,-2.63473 -5.38086,-2.63477 -2.05341,4e-5 -3.99546,0.6309 -5.82617,1.89258 -1.80601,1.26175 -3.3646,3.31513 -4.67579,6.16016 -1.01433,2.15236 -1.75652,4.5521 -2.22656,7.19922 -0.47006,2.62241 -0.70509,5.04688 -0.70508,7.27343 -10e-6,3.53777 0.60611,6.22201 1.81836,8.05274 1.23697,1.80599 3.09244,2.70898 5.56641,2.70898 2.2018,0 4.15623,-0.6927 5.86328,-2.07812 1.70701,-1.38542 3.09242,-3.14192 4.15625,-5.26953 1.06377,-2.07812 1.88018,-4.45312 2.44922,-7.125 0.56898,-2.6966 0.85348,-5.45506 0.85352,-8.2754"
           inkscape:connector-curvature="0" />
        <path
           id="path3840"
           d="m 885.90387,903.51147 c -4e-5,0.69274 -0.099,1.45967 -0.29688,2.30079 -0.19795,0.81643 -0.48245,1.49677 -0.85351,2.04101 -0.44535,0.668 -0.94014,1.18753 -1.48438,1.5586 -0.51956,0.34637 -1.27412,0.51955 -2.26367,0.51953 -1.33596,2e-5 -2.33792,-0.33396 -3.00586,-1.00196 -0.66799,-0.66794 -1.00198,-1.41013 -1.00195,-2.22656 -3e-5,-0.7669 0.18552,-1.62041 0.55664,-2.56055 0.37107,-0.96481 0.75453,-1.91728 1.15039,-2.85742 -0.2969,4e-5 -0.79169,0.0866 -1.48437,0.25977 -0.668,0.14847 -1.4844,0.45771 -2.44922,0.92773 -0.96487,0.47009 -2.06578,1.17516 -3.30274,2.11524 -1.21226,0.94013 -2.51108,2.18948 -3.89648,3.74804 l -5.97461,26.57032 -6.90234,0 5.41796,-24.04688 c 0.12369,-0.59372 0.29687,-1.48435 0.51954,-2.67187 0.24738,-1.18748 0.37108,-2.06573 0.37109,-2.63477 -10e-6,-1.38539 -0.23504,-2.31312 -0.70508,-2.7832 -0.47006,-0.47002 -1.41016,-0.70505 -2.82031,-0.70508 -0.54428,3e-5 -1.23699,0.099 -2.07813,0.29687 -0.84115,0.17321 -1.49674,0.32165 -1.96679,0.44532 l 0.55664,-2.375 c 1.92968,-0.86585 3.63671,-1.50908 5.12109,-1.92969 1.48437,-0.42054 2.75845,-0.63082 3.82227,-0.63086 1.97915,4e-5 3.3893,0.54431 4.23047,1.63281 0.84112,1.06384 1.2617,2.67191 1.26171,4.82422 l 0.22266,0 c 2.94399,-2.54814 5.17055,-4.32939 6.67969,-5.34375 1.53383,-1.01429 3.12953,-1.52145 4.78711,-1.52148 0.79163,3e-5 1.55856,0.099 2.30078,0.29687 0.74215,0.19796 1.37301,0.53194 1.89258,1.00195 0.54423,0.51957 0.94007,1.12569 1.1875,1.81836 0.2721,0.66801 0.40816,1.64522 0.4082,2.93164"
           inkscape:connector-curvature="0" />
        <path
           id="path3842"
           d="m 911.84332,929.89624 -0.25976,-0.0742 c -0.49482,0.39584 -1.1999,0.95248 -2.11524,1.66992 -0.89065,0.71745 -1.83075,1.34831 -2.82031,1.89258 -1.13804,0.66797 -2.28843,1.21224 -3.45117,1.63281 -1.16278,0.42058 -2.44924,0.63086 -3.85938,0.63086 -3.58725,0 -6.35808,-1.26171 -8.3125,-3.78515 -1.92969,-2.54817 -2.89453,-6.04882 -2.89453,-10.50196 0,-3.06769 0.55664,-6.0488 1.66992,-8.94336 1.13802,-2.8945 2.68424,-5.46742 4.63868,-7.71875 1.88019,-2.17705 4.13149,-3.92119 6.7539,-5.23242 2.62238,-1.3359 5.36847,-2.00387 8.23828,-2.0039 1.78123,3e-5 3.46352,0.23506 5.04688,0.70507 1.5833,0.44535 2.85739,0.97725 3.82226,1.59571 l 6.79102,-1.74414 0.44531,0.55664 -6.23437,29.24219 c -0.94014,4.42838 -2.15238,8.16406 -3.63672,11.20703 -1.45967,3.0677 -3.15433,5.49217 -5.08399,7.27343 -1.97919,1.83072 -4.16864,3.12955 -6.56836,3.89649 -2.37501,0.79165 -5.07162,1.18748 -8.08984,1.1875 -2.05339,-2e-5 -3.73568,-0.16083 -5.04687,-0.48242 -1.28647,-0.32163 -2.30079,-0.74221 -3.04297,-1.26172 -0.74219,-0.51955 -1.24935,-1.1133 -1.52149,-1.78125 -0.24739,-0.64324 -0.37109,-1.26173 -0.37109,-1.85547 0,-1.11329 0.33398,-2.0534 1.00195,-2.82031 0.66797,-0.7422 1.58333,-1.11329 2.7461,-1.11328 0.91536,-10e-6 1.69465,0.25975 2.33789,0.77929 0.64322,0.54426 1.16275,1.12564 1.55859,1.74414 0.42056,0.64322 0.82877,1.41015 1.22461,2.30078 0.39582,0.89062 0.6927,1.55858 0.89062,2.00391 l 1.11329,0 c 1.36066,-10e-6 2.82029,-0.30926 4.3789,-0.92773 1.55858,-0.61851 2.9811,-1.62046 4.26758,-3.00586 1.31118,-1.43491 2.53579,-3.36459 3.67383,-5.78907 1.13799,-2.39974 2.04099,-5.49218 2.70898,-9.27734 m 4.97266,-23.71289 c -3e-5,-0.69268 -0.11136,-1.39776 -0.33399,-2.11523 -0.19794,-0.74216 -0.58141,-1.4225 -1.15039,-2.04102 -0.5443,-0.59372 -1.237,-1.06377 -2.07812,-1.41016 -0.84117,-0.34632 -1.91734,-0.51949 -3.22852,-0.51953 -1.90497,4e-5 -3.71095,0.58142 -5.41797,1.74414 -1.6823,1.13806 -3.20379,2.70902 -4.56445,4.71289 -1.26173,1.88024 -2.28842,4.15628 -3.08008,6.82813 -0.79167,2.67189 -1.18751,5.35613 -1.1875,8.05273 -10e-6,1.45965 0.099,2.80796 0.29688,4.04492 0.22264,1.21225 0.59374,2.27605 1.11328,3.19141 0.51952,0.91537 1.19986,1.63282 2.04102,2.15234 0.86587,0.4948 1.97915,0.7422 3.33984,0.74219 1.73175,10e-6 3.45115,-0.49479 5.1582,-1.48437 1.70701,-1.01432 3.32745,-2.30078 4.86133,-3.85938 l 4.23047,-20.03906"
           inkscape:connector-curvature="0" />
      </g>
    </g>
  </g>
</svg>
