<?xml version="1.0" encoding="UTF-8" standalone="no"?>
<!-- Created with Inkscape (http://www.inkscape.org/) -->
<svg id="svg2" xmlns:rdf="http://www.w3.org/1999/02/22-rdf-syntax-ns#" xmlns="http://www.w3.org/2000/svg" height="45" width="250" version="1.1" xmlns:cc="http://creativecommons.org/ns#" xmlns:dc="http://purl.org/dc/elements/1.1/">
 <defs id="defs4">
  <filter id="filter3909">
   <feGaussianBlur id="feGaussianBlur3911" stdDeviation="1.4232077"/>
  </filter>
 </defs>
 <metadata id="metadata7">
  <rdf:RDF>
   <cc:Work rdf:about="">
    <dc:format>image/svg+xml</dc:format>
    <dc:type rdf:resource="http://purl.org/dc/dcmitype/StillImage"/>
    <dc:title/>
   </cc:Work>
  </rdf:RDF>
 </metadata>
 <g id="layer1" transform="translate(0,-1007.3622)">
  <g id="g3867" filter="url(#filter3909)" fill="#000">
   <path id="path3869" d="m21.667,1021-1.7835,0.6085c-0.48962-1.4968-1.301-2.6298-2.434-3.3992-1.1191-0.7694-2.3431-1.1541-3.672-1.1541-1.6087,0-2.9236,0.5176-3.9448,1.5527-1.0072,1.0352-1.5108,2.3012-1.5108,3.7979-0.0000068,0.7694,0.17485,1.4689,0.52457,2.0983,0.34971,0.6295,0.81832,1.1681,1.4058,1.6157,0.58751,0.4476,1.259,0.8673,2.0144,1.259,0.76936,0.3777,1.5737,0.7414,2.413,1.0911,0.85329,0.3497,1.6996,0.7204,2.5389,1.1121,0.85328,0.3777,1.6576,0.8183,2.413,1.3219,0.76935,0.5036,1.4478,1.0631,2.0353,1.6786s1.0561,1.3709,1.4058,2.2661c0.34969,0.8953,0.52455,1.8885,0.52457,2.9796-0.000021,1.8185-0.46864,3.4482-1.4058,4.889-0.93725,1.4408-2.1543,2.5389-3.651,3.2943-1.4968,0.7554-3.1125,1.1331-4.847,1.1331-1.1331,0-2.2172-0.1819-3.2523-0.5456-1.0352-0.3637-2.0004-0.9023-2.8956-1.6157-0.89527-0.7274-1.6576-1.6926-2.2871-2.8956-0.62949-1.203-1.0421-2.5809-1.238-4.1336l1.8675-0.2308c0.34971,2.5179,1.245,4.3994,2.6858,5.6443,1.4548,1.2311,3.1614,1.8465,5.1198,1.8465,1.3849,0,2.6788-0.2867,3.8818-0.8603,1.203-0.5875,2.1892-1.4547,2.9586-2.6018,0.78334-1.1611,1.175-2.49,1.175-3.9868-0.000022-0.9372-0.17488-1.7835-0.52457-2.5389-0.34973-0.7553-0.81835-1.3918-1.4058-1.9094-0.58754-0.5176-1.266-0.9932-2.0353-1.4268-0.7554-0.4337-1.5597-0.8253-2.413-1.1751-0.83932-0.3637-1.6856-0.7274-2.5389-1.0911-0.83932-0.3637-1.6437-0.7693-2.413-1.217-0.75539-0.4476-1.4268-0.9372-2.0143-1.4688-0.58752-0.5315-1.0561-1.182-1.4058-1.9514-0.34972-0.7833-0.52458-1.6576-0.52457-2.6228-0.0000049-2.0144,0.68543-3.7279,2.0563-5.1408,1.3709-1.4268,3.1334-2.1402,5.2877-2.1403,1.6786,0.0001,3.2523,0.5246,4.7211,1.5737,1.4828,1.0352,2.5389,2.483,3.1684,4.3435" style="text-align:start;"/>
   <path id="path3871" d="m56.477,1046.8-1.8465,0,6.0011-31.705,11.436,27.194,11.624-27.194,5.8332,31.705-1.9724,0-4.5952-25.179-11.016,25.536-10.68-25.536-4.7841,25.179" style="text-align:start;"/>
   <path id="path3873" d="m93.743,1046.8,0-31.369,11.121,0c2.2521,0,4.1616,0.8113,5.7283,2.434s2.35,3.5741,2.3501,5.8542c-0.00003,2.3081-0.78338,4.2805-2.3501,5.9171-1.5527,1.6367-3.4412,2.455-5.6654,2.455h-9.2954v14.709h-1.8885m1.8885-16.681,9.2954,0c1.6646,0,3.0914-0.6224,4.2805-1.8674,1.203-1.245,1.8045-2.7558,1.8045-4.5323-0.00002-1.7765-0.60153-3.2873-1.8045-4.5323-1.203-1.259-2.6508-1.8884-4.3434-1.8885h-9.2324v12.82" style="text-align:start;"/>
   <path id="path3875" d="m137.22,1046.8-18.213,0,0-31.327,1.8884,0,0,29.439,16.325,0,0,1.8884" style="text-align:start;"/>
   <path id="path3877" d="m158.92,1027.7,0,1.8885-15.024,0,0,15.359,16.241,0,0,1.8884-18.129,0,0-31.327,18.213,0,0,1.8885-16.325,0,0,10.302,15.024,0" style="text-align:start;"/>
   <path id="path3879" d="m181.72,1021-1.7835,0.6085c-0.48961-1.4968-1.301-2.6298-2.434-3.3992-1.1191-0.7694-2.3431-1.1541-3.672-1.1541-1.6087,0-2.9236,0.5176-3.9448,1.5527-1.0072,1.0352-1.5108,2.3012-1.5108,3.7979-0.00001,0.7694,0.17485,1.4689,0.52457,2.0983,0.3497,0.6295,0.81832,1.1681,1.4058,1.6157,0.58751,0.4476,1.259,0.8673,2.0144,1.259,0.76935,0.3777,1.5737,0.7414,2.413,1.0911,0.85328,0.3497,1.6996,0.7204,2.5389,1.1121,0.85328,0.3777,1.6576,0.8183,2.413,1.3219,0.76935,0.5036,1.4478,1.0631,2.0353,1.6786s1.0561,1.3709,1.4058,2.2661c0.34969,0.8953,0.52455,1.8885,0.52457,2.9796-0.00002,1.8185-0.46864,3.4482-1.4058,4.889-0.93725,1.4408-2.1542,2.5389-3.651,3.2943s-3.1125,1.1331-4.847,1.1331c-1.1331,0-2.2172-0.1819-3.2523-0.5456-1.0352-0.3637-2.0004-0.9023-2.8956-1.6157-0.89527-0.7274-1.6576-1.6926-2.2871-2.8956-0.62949-1.203-1.0422-2.5809-1.238-4.1336l1.8675-0.2308c0.34971,2.5179,1.245,4.3994,2.6858,5.6443,1.4548,1.2311,3.1614,1.8465,5.1198,1.8465,1.3848,0,2.6788-0.2867,3.8818-0.8603,1.203-0.5875,2.1892-1.4547,2.9586-2.6018,0.78334-1.1611,1.175-2.49,1.175-3.9868-0.00002-0.9372-0.17488-1.7835-0.52457-2.5389-0.34974-0.7553-0.81835-1.3918-1.4058-1.9094-0.58754-0.5176-1.266-0.9932-2.0353-1.4268-0.7554-0.4337-1.5597-0.8253-2.413-1.1751-0.83932-0.3637-1.6856-0.7274-2.5389-1.0911-0.83933-0.3637-1.6437-0.7693-2.413-1.217-0.75539-0.4476-1.4268-0.9372-2.0144-1.4688-0.58752-0.5315-1.0561-1.182-1.4058-1.9514-0.34972-0.7833-0.52458-1.6576-0.52457-2.6228-0.00001-2.0144,0.68543-3.7279,2.0563-5.1408,1.3709-1.4268,3.1334-2.1402,5.2877-2.1403,1.6786,0.0001,3.2523,0.5246,4.7211,1.5737,1.4828,1.0352,2.5389,2.483,3.1684,4.3435" style="text-align:start;"/>
   <path id="path3881" style="text-align:start;" d="m188.64,1041.7c-0.00001,0.9046,0.2032,1.6322,0.6096,2.1828s1.0095,0.8259,1.8092,0.8259c0.2622,0,0.50473-0.01,0.7276-0.02,0.22286-0.026,0.4064-0.053,0.55062-0.079v-5.3292c-0.18355-0.1179-0.42608-0.2163-0.7276-0.2949-0.28842-0.079-0.5834-0.118-0.88492-0.118-1.3896,0-2.0845,0.9439-2.0845,2.8317m6.627,4.9162c-0.26221,0.079-0.56373,0.1573-0.90458,0.236-0.34087,0.066-0.70139,0.1245-1.0816,0.177-0.36709,0.052-0.74727,0.092-1.1406,0.118-0.38019,0.039-0.74727,0.059-1.1012,0.059-0.85215,0-1.6125-0.1246-2.2811-0.3737-0.6686-0.249-1.2323-0.603-1.6912-1.0619-0.45884-0.4719-0.81281-1.0356-1.0619-1.6911-0.23597-0.6686-0.35396-1.4159-0.35396-2.2418,0-0.8391,0.10488-1.5929,0.31463-2.2615,0.20976-0.6817,0.51129-1.2585,0.90458-1.7305,0.3933-0.4719,0.87181-0.8324,1.4355-1.0815,0.57684-0.2491,1.2323-0.3737,1.9665-0.3737,0.4064,0,0.76692,0.039,1.0816,0.118,0.32774,0.079,0.65548,0.1901,0.98324,0.3343v-4.6802l2.93-0.472v14.926"/>
   <path id="path3883" style="text-align:start;" d="m204.63,1041.7c-0.00001-1.8878-0.69483-2.8317-2.0845-2.8317-0.30153,0-0.60306,0.039-0.90458,0.118-0.28842,0.079-0.5244,0.177-0.70793,0.2949v5.3292c0.1442,0.026,0.32774,0.053,0.55061,0.079,0.22287,0.013,0.4654,0.02,0.7276,0.02,0.79969,0,1.4028-0.2753,1.8092-0.8259s0.6096-1.2782,0.60961-2.1828m2.989,0.079c-0.00001,0.8259-0.12456,1.5732-0.37363,2.2418-0.23599,0.6686-0.5834,1.2389-1.0422,1.7108-0.45885,0.472-1.0226,0.839-1.6912,1.1012-0.66861,0.2491-1.429,0.3737-2.2811,0.3737-0.35398,0-0.72761-0.02-1.1209-0.059-0.38019-0.026-0.76037-0.066-1.1406-0.118-0.36708-0.053-0.72105-0.1114-1.0619-0.177-0.34086-0.079-0.64239-0.1573-0.90458-0.236v-14.454l2.93-0.472v5.1522c0.32774-0.1442,0.6686-0.2556,1.0226-0.3343,0.35396-0.079,0.73415-0.118,1.1406-0.118,0.73414,0,1.3831,0.1311,1.9468,0.3933,0.56371,0.2491,1.0357,0.6096,1.4159,1.0816,0.38017,0.4719,0.66859,1.0422,0.86525,1.7108,0.19663,0.6555,0.29496,1.3897,0.29497,2.2025"/>
   <path id="path3885" style="baseline-shift:baseline;block-progression:tb;color:#000000;direction:ltr;text-indent:0;text-align:start;enable-background:accumulate;text-transform:none;" d="m34.556,1008.5c-0.44823-0.063-0.86914,0.016-1.1778,0.1792-0.6174,0.3257-0.91325,0.8535-0.91325,0.8535l1.3998,0.8535s0.13772-0.1801,0.28166-0.256c0.10188-0.054,0.19638-0.062,0.38408,0.051v10.012l-12.666,25.742a0.81945,0.81945,0,0,0,0.73402,1.1778h30.231a0.81945,0.81945,0,0,0,0.73402,-1.1778l-12.666-25.742v-10.02c0.17994-0.1051,0.28271-0.096,0.38408-0.043,0.14545,0.076,0.28166,0.256,0.28166,0.256l1.3912-0.862s-0.29618-0.5208-0.91325-0.845-1.6753-0.2999-2.5178,0.4694a0.81945,0.81945,0,0,0,-0.26459,0.606v10.626a0.81945,0.81945,0,0,0,0.08535,0.367l12.171,24.726h-27.602l12.171-24.726a0.81945,0.81945,0,0,0,0.08535,-0.367v-10.626a0.81945,0.81945,0,0,0,-0.26459,-0.606c-0.42213-0.3854-0.90031-0.5859-1.3485-0.6486z"/>
   <path id="path3887" style="baseline-shift:baseline;block-progression:tb;color:#000000;direction:ltr;text-indent:0;text-align:start;enable-background:accumulate;text-transform:none;" d="m27.617,1041a0.68366,0.68366,0,1,0,0.06828,1.3656h6.0258a0.68287,0.68287,0,1,0,0,-1.3656h-6.0258a0.68287,0.68287,0,0,0,-0.06828,0z"/>
   <path id="path3889" style="baseline-shift:baseline;block-progression:tb;color:#000000;direction:ltr;text-indent:0;text-align:start;enable-background:accumulate;text-transform:none;" d="m33.711,1037.9-4.5321,0.01a0.68287,0.68287,0,1,0,0,1.3656l4.5321-0.01a0.68287,0.68287,0,1,0,0,-1.3656z"/>
   <path id="path3891" style="baseline-shift:baseline;block-progression:tb;color:#000000;direction:ltr;text-indent:0;text-align:start;enable-background:accumulate;text-transform:none;" d="m30.63,1034.8a0.68366,0.68366,0,1,0,0.06828,1.3656h3.0129a0.68287,0.68287,0,1,0,0,-1.3656h-3.0129a0.68287,0.68287,0,0,0,-0.06828,0z"/>
   <path id="path3893" style="text-align:start;" d="m212.8,1045.5c-0.00001,0.3784-0.13853,0.7027-0.41556,0.973-0.27027,0.2635-0.59461,0.3953-0.97299,0.3953-0.37839,0-0.7061-0.1318-0.98314-0.3953-0.27027-0.2703-0.40541-0.5946-0.40541-0.973s0.13514-0.7027,0.40541-0.973c0.27704-0.277,0.60475-0.4156,0.98314-0.4156,0.37838,0,0.70272,0.1386,0.97299,0.4156,0.27703,0.2703,0.41555,0.5946,0.41556,0.973"/>
   <path id="path3895" style="text-align:start;" d="m224.81,1040.5c-0.00001,0.7973-0.13515,1.5946-0.40541,2.3919-0.27029,0.7973-0.66219,1.4967-1.1757,2.098-0.52029,0.6217-1.1487,1.1217-1.8852,1.5001-0.72976,0.3716-1.5778,0.5574-2.544,0.5574-1.1216,0-2.0338-0.3615-2.7366-1.0845-0.69596-0.723-1.0439-1.696-1.0439-2.9189,0-0.8987,0.14865-1.7366,0.44595-2.5136,0.29731-0.7771,0.69596-1.4595,1.196-2.0474,0.50677-0.5878,1.1318-1.0608,1.875-1.4189,0.75001-0.3649,1.5608-0.5473,2.4325-0.5473,1.2027,0,2.1419,0.3682,2.8176,1.1047,0.68244,0.7298,1.0237,1.6892,1.0237,2.8785m-2.0676-0.3852c-0.00001-0.9595-0.17231-1.6791-0.5169-2.1588-0.33786-0.4798-0.82773-0.7196-1.4696-0.7196-0.56083,0-1.0912,0.1723-1.5913,0.5169-0.49326,0.3446-0.91894,0.9054-1.2771,1.6824-0.27704,0.5879-0.47974,1.2433-0.60812,1.9663-0.12839,0.7162-0.19258,1.3784-0.19257,1.9866-0.00001,0.9662,0.16554,1.6993,0.49663,2.1993,0.33784,0.4933,0.84461,0.7399,1.5203,0.7399,0.60136,0,1.1352-0.1892,1.6014-0.5676,0.46622-0.3783,0.84461-0.8581,1.1352-1.4392,0.29054-0.5676,0.51352-1.2162,0.66894-1.946,0.1554-0.7365,0.2331-1.4899,0.23311-2.2602"/>
   <path id="path3897" style="text-align:start;" d="m235.16,1038.1c-0.00002,0.1892-0.027,0.3987-0.0811,0.6284-0.0541,0.223-0.13177,0.4088-0.23311,0.5575-0.12164,0.1824-0.25677,0.3243-0.40542,0.4256-0.1419,0.095-0.34799,0.1419-0.61826,0.1419-0.36488,0-0.63853-0.091-0.82096-0.2736-0.18245-0.1824-0.27367-0.3852-0.27366-0.6081-0.00001-0.2095,0.0507-0.4426,0.15203-0.6994,0.10135-0.2635,0.20608-0.5236,0.3142-0.7804-0.0811,0-0.21623,0.024-0.40541,0.071-0.18245,0.041-0.40543,0.1251-0.66894,0.2534-0.26353,0.1284-0.56421,0.321-0.90205,0.5777-0.3311,0.2568-0.68583,0.598-1.0642,1.0237l-1.6318,7.257h-1.8852l1.4798-6.5678c0.0338-0.1621,0.0811-0.4054,0.1419-0.7297,0.0676-0.3243,0.10135-0.5642,0.10135-0.7196,0-0.3784-0.0642-0.6318-0.19257-0.7602-0.12839-0.1284-0.38515-0.1926-0.77029-0.1926-0.14866,0-0.33785,0.027-0.56759,0.081-0.22973,0.047-0.40879,0.088-0.53717,0.1216l0.15203-0.6486c0.52704-0.2365,0.99327-0.4122,1.3987-0.5271,0.40542-0.1148,0.7534-0.1722,1.044-0.1723,0.54055,0.0001,0.92569,0.1487,1.1554,0.446,0.22973,0.2906,0.3446,0.7298,0.34461,1.3176h0.0608c0.80407-0.696,1.4122-1.1825,1.8244-1.4595,0.41892-0.277,0.85474-0.4155,1.3075-0.4155,0.21621,0,0.42567,0.027,0.62839,0.081,0.2027,0.054,0.375,0.1453,0.5169,0.2737,0.14865,0.1419,0.25676,0.3074,0.32434,0.4966,0.0743,0.1825,0.11147,0.4494,0.11149,0.8007"/>
   <path id="path3899" style="text-align:start;" d="m242.24,1045.3-0.0709-0.02c-0.13515,0.1081-0.32772,0.2601-0.57772,0.4561-0.24326,0.1959-0.50002,0.3682-0.77029,0.5169-0.31083,0.1824-0.62502,0.3311-0.94259,0.4459-0.31758,0.1149-0.66894,0.1723-1.0541,0.1723-0.97976,0-1.7365-0.3446-2.2703-1.0338-0.52704-0.6959-0.79056-1.6521-0.79056-2.8683,0-0.8379,0.15203-1.6521,0.45609-2.4426,0.31082-0.7906,0.73313-1.4933,1.2669-2.1082,0.51352-0.5946,1.1284-1.071,1.8446-1.4291,0.71622-0.3648,1.4662-0.5473,2.25-0.5473,0.48649,0,0.94596,0.064,1.3784,0.1926,0.43243,0.1216,0.78041,0.2669,1.0439,0.4358l1.8548-0.4764,0.12162,0.1521-1.7027,7.9867c-0.25678,1.2095-0.58787,2.2298-0.99327,3.0609-0.39867,0.8378-0.86152,1.5-1.3886,1.9865-0.54056,0.5-1.1386,0.8547-1.794,1.0642-0.64866,0.2162-1.3852,0.3243-2.2095,0.3243-0.56083,0-1.0203-0.044-1.3784-0.1317-0.35136-0.088-0.6284-0.2028-0.8311-0.3446-0.20271-0.1419-0.34123-0.3041-0.41556-0.4865-0.0676-0.1757-0.10135-0.3446-0.10135-0.5068,0-0.3041,0.0912-0.5608,0.27366-0.7703,0.18243-0.2027,0.43244-0.3041,0.75002-0.3041,0.25,0,0.46284,0.071,0.63853,0.2129,0.17567,0.1487,0.31757,0.3074,0.42568,0.4764,0.11487,0.1756,0.22636,0.3851,0.33447,0.6283,0.10811,0.2433,0.18919,0.4257,0.24325,0.5474h0.30406c0.37163,0,0.77028-0.085,1.196-0.2534,0.42568-0.169,0.8142-0.4426,1.1656-0.821,0.35811-0.3919,0.69258-0.9189,1.0034-1.5811,0.31081-0.6554,0.55744-1.5,0.73988-2.5339m1.3581-6.4765c0-0.1892-0.0304-0.3817-0.0912-0.5777-0.0541-0.2027-0.15879-0.3885-0.31419-0.5574-0.14866-0.1622-0.33785-0.2906-0.56758-0.3852-0.22974-0.095-0.52367-0.1419-0.88178-0.1419-0.52029,0-1.0135,0.1588-1.4798,0.4764-0.45947,0.3108-0.87503,0.7399-1.2466,1.2872-0.34461,0.5135-0.62502,1.1352-0.84124,1.8649s-0.32433,1.4629-0.32433,2.1994c0,0.3986,0.027,0.7669,0.0811,1.1047,0.0608,0.3311,0.16217,0.6217,0.30406,0.8717,0.1419,0.25,0.32771,0.4459,0.55745,0.5878,0.23649,0.1352,0.54055,0.2027,0.91219,0.2027,0.47297,0,0.94258-0.1351,1.4088-0.4054,0.46623-0.277,0.9088-0.6284,1.3277-1.0541l1.1554-5.4731"/>
  </g>
  <g id="g3849" fill="#FFF">
   <path id="path3762" style="text-align:start;" d="m21.667,1021-1.7835,0.6085c-0.48962-1.4968-1.301-2.6298-2.434-3.3992-1.1191-0.7694-2.3431-1.1541-3.672-1.1541-1.6087,0-2.9236,0.5176-3.9448,1.5527-1.0072,1.0352-1.5108,2.3012-1.5108,3.7979-0.0000068,0.7694,0.17485,1.4689,0.52457,2.0983,0.34971,0.6295,0.81832,1.1681,1.4058,1.6157,0.58751,0.4476,1.259,0.8673,2.0144,1.259,0.76936,0.3777,1.5737,0.7414,2.413,1.0911,0.85329,0.3497,1.6996,0.7204,2.5389,1.1121,0.85328,0.3777,1.6576,0.8183,2.413,1.3219,0.76935,0.5036,1.4478,1.0631,2.0353,1.6786s1.0561,1.3709,1.4058,2.2661c0.34969,0.8953,0.52455,1.8885,0.52457,2.9796-0.000021,1.8185-0.46864,3.4482-1.4058,4.889-0.93725,1.4408-2.1543,2.5389-3.651,3.2943-1.4968,0.7554-3.1125,1.1331-4.847,1.1331-1.1331,0-2.2172-0.1819-3.2523-0.5456-1.0352-0.3637-2.0004-0.9023-2.8956-1.6157-0.89527-0.7274-1.6576-1.6926-2.2871-2.8956-0.62949-1.203-1.0421-2.5809-1.238-4.1336l1.8675-0.2308c0.34971,2.5179,1.245,4.3994,2.6858,5.6443,1.4548,1.2311,3.1614,1.8465,5.1198,1.8465,1.3849,0,2.6788-0.2867,3.8818-0.8603,1.203-0.5875,2.1892-1.4547,2.9586-2.6018,0.78334-1.1611,1.175-2.49,1.175-3.9868-0.000022-0.9372-0.17488-1.7835-0.52457-2.5389-0.34973-0.7553-0.81835-1.3918-1.4058-1.9094-0.58754-0.5176-1.266-0.9932-2.0353-1.4268-0.7554-0.4337-1.5597-0.8253-2.413-1.1751-0.83932-0.3637-1.6856-0.7274-2.5389-1.0911-0.83932-0.3637-1.6437-0.7693-2.413-1.217-0.75539-0.4476-1.4268-0.9372-2.0143-1.4688-0.58752-0.5315-1.0561-1.182-1.4058-1.9514-0.34972-0.7833-0.52458-1.6576-0.52457-2.6228-0.0000049-2.0144,0.68543-3.7279,2.0563-5.1408,1.3709-1.4268,3.1334-2.1402,5.2877-2.1403,1.6786,0.0001,3.2523,0.5246,4.7211,1.5737,1.4828,1.0352,2.5389,2.483,3.1684,4.3435"/>
   <path id="path3766" style="text-align:start;" d="m56.477,1046.8-1.8465,0,6.0011-31.705,11.436,27.194,11.624-27.194,5.8332,31.705-1.9724,0-4.5952-25.179-11.016,25.536-10.68-25.536-4.7841,25.179"/>
   <path id="path3768" style="text-align:start;" d="m93.743,1046.8,0-31.369,11.121,0c2.2521,0,4.1616,0.8113,5.7283,2.434s2.35,3.5741,2.3501,5.8542c-0.00003,2.3081-0.78338,4.2805-2.3501,5.9171-1.5527,1.6367-3.4412,2.455-5.6654,2.455h-9.2954v14.709h-1.8885m1.8885-16.681,9.2954,0c1.6646,0,3.0914-0.6224,4.2805-1.8674,1.203-1.245,1.8045-2.7558,1.8045-4.5323-0.00002-1.7765-0.60153-3.2873-1.8045-4.5323-1.203-1.259-2.6508-1.8884-4.3434-1.8885h-9.2324v12.82"/>
   <path id="path3770" style="text-align:start;" d="m137.22,1046.8-18.213,0,0-31.327,1.8884,0,0,29.439,16.325,0,0,1.8884"/>
   <path id="path3772" style="text-align:start;" d="m158.92,1027.7,0,1.8885-15.024,0,0,15.359,16.241,0,0,1.8884-18.129,0,0-31.327,18.213,0,0,1.8885-16.325,0,0,10.302,15.024,0"/>
   <path id="path3774" style="text-align:start;" d="m181.72,1021-1.7835,0.6085c-0.48961-1.4968-1.301-2.6298-2.434-3.3992-1.1191-0.7694-2.3431-1.1541-3.672-1.1541-1.6087,0-2.9236,0.5176-3.9448,1.5527-1.0072,1.0352-1.5108,2.3012-1.5108,3.7979-0.00001,0.7694,0.17485,1.4689,0.52457,2.0983,0.3497,0.6295,0.81832,1.1681,1.4058,1.6157,0.58751,0.4476,1.259,0.8673,2.0144,1.259,0.76935,0.3777,1.5737,0.7414,2.413,1.0911,0.85328,0.3497,1.6996,0.7204,2.5389,1.1121,0.85328,0.3777,1.6576,0.8183,2.413,1.3219,0.76935,0.5036,1.4478,1.0631,2.0353,1.6786s1.0561,1.3709,1.4058,2.2661c0.34969,0.8953,0.52455,1.8885,0.52457,2.9796-0.00002,1.8185-0.46864,3.4482-1.4058,4.889-0.93725,1.4408-2.1542,2.5389-3.651,3.2943s-3.1125,1.1331-4.847,1.1331c-1.1331,0-2.2172-0.1819-3.2523-0.5456-1.0352-0.3637-2.0004-0.9023-2.8956-1.6157-0.89527-0.7274-1.6576-1.6926-2.2871-2.8956-0.62949-1.203-1.0422-2.5809-1.238-4.1336l1.8675-0.2308c0.34971,2.5179,1.245,4.3994,2.6858,5.6443,1.4548,1.2311,3.1614,1.8465,5.1198,1.8465,1.3848,0,2.6788-0.2867,3.8818-0.8603,1.203-0.5875,2.1892-1.4547,2.9586-2.6018,0.78334-1.1611,1.175-2.49,1.175-3.9868-0.00002-0.9372-0.17488-1.7835-0.52457-2.5389-0.34974-0.7553-0.81835-1.3918-1.4058-1.9094-0.58754-0.5176-1.266-0.9932-2.0353-1.4268-0.7554-0.4337-1.5597-0.8253-2.413-1.1751-0.83932-0.3637-1.6856-0.7274-2.5389-1.0911-0.83933-0.3637-1.6437-0.7693-2.413-1.217-0.75539-0.4476-1.4268-0.9372-2.0144-1.4688-0.58752-0.5315-1.0561-1.182-1.4058-1.9514-0.34972-0.7833-0.52458-1.6576-0.52457-2.6228-0.00001-2.0144,0.68543-3.7279,2.0563-5.1408,1.3709-1.4268,3.1334-2.1402,5.2877-2.1403,1.6786,0.0001,3.2523,0.5246,4.7211,1.5737,1.4828,1.0352,2.5389,2.483,3.1684,4.3435"/>
   <path id="path3781" style="text-align:start;" d="m188.64,1041.7c-0.00001,0.9046,0.2032,1.6322,0.6096,2.1828s1.0095,0.8259,1.8092,0.8259c0.2622,0,0.50473-0.01,0.7276-0.02,0.22286-0.026,0.4064-0.053,0.55062-0.079v-5.3292c-0.18355-0.1179-0.42608-0.2163-0.7276-0.2949-0.28842-0.079-0.5834-0.118-0.88492-0.118-1.3896,0-2.0845,0.9439-2.0845,2.8317m6.627,4.9162c-0.26221,0.079-0.56373,0.1573-0.90458,0.236-0.34087,0.066-0.70139,0.1245-1.0816,0.177-0.36709,0.052-0.74727,0.092-1.1406,0.118-0.38019,0.039-0.74727,0.059-1.1012,0.059-0.85215,0-1.6125-0.1246-2.2811-0.3737-0.6686-0.249-1.2323-0.603-1.6912-1.0619-0.45884-0.4719-0.81281-1.0356-1.0619-1.6911-0.23597-0.6686-0.35396-1.4159-0.35396-2.2418,0-0.8391,0.10488-1.5929,0.31463-2.2615,0.20976-0.6817,0.51129-1.2585,0.90458-1.7305,0.3933-0.4719,0.87181-0.8324,1.4355-1.0815,0.57684-0.2491,1.2323-0.3737,1.9665-0.3737,0.4064,0,0.76692,0.039,1.0816,0.118,0.32774,0.079,0.65548,0.1901,0.98324,0.3343v-4.6802l2.93-0.472v14.926"/>
   <path id="path3783" style="text-align:start;" d="m204.63,1041.7c-0.00001-1.8878-0.69483-2.8317-2.0845-2.8317-0.30153,0-0.60306,0.039-0.90458,0.118-0.28842,0.079-0.5244,0.177-0.70793,0.2949v5.3292c0.1442,0.026,0.32774,0.053,0.55061,0.079,0.22287,0.013,0.4654,0.02,0.7276,0.02,0.79969,0,1.4028-0.2753,1.8092-0.8259s0.6096-1.2782,0.60961-2.1828m2.989,0.079c-0.00001,0.8259-0.12456,1.5732-0.37363,2.2418-0.23599,0.6686-0.5834,1.2389-1.0422,1.7108-0.45885,0.472-1.0226,0.839-1.6912,1.1012-0.66861,0.2491-1.429,0.3737-2.2811,0.3737-0.35398,0-0.72761-0.02-1.1209-0.059-0.38019-0.026-0.76037-0.066-1.1406-0.118-0.36708-0.053-0.72105-0.1114-1.0619-0.177-0.34086-0.079-0.64239-0.1573-0.90458-0.236v-14.454l2.93-0.472v5.1522c0.32774-0.1442,0.6686-0.2556,1.0226-0.3343,0.35396-0.079,0.73415-0.118,1.1406-0.118,0.73414,0,1.3831,0.1311,1.9468,0.3933,0.56371,0.2491,1.0357,0.6096,1.4159,1.0816,0.38017,0.4719,0.66859,1.0422,0.86525,1.7108,0.19663,0.6555,0.29496,1.3897,0.29497,2.2025"/>
   <path id="path3773" d="m34.556,1008.5c-0.44823-0.063-0.86914,0.016-1.1778,0.1792-0.6174,0.3257-0.91325,0.8535-0.91325,0.8535l1.3998,0.8535s0.13772-0.1801,0.28166-0.256c0.10188-0.054,0.19638-0.062,0.38408,0.051v10.012l-12.666,25.742a0.81945,0.81945,0,0,0,0.73402,1.1778h30.231a0.81945,0.81945,0,0,0,0.73402,-1.1778l-12.666-25.742v-10.02c0.17994-0.1051,0.28271-0.096,0.38408-0.043,0.14545,0.076,0.28166,0.256,0.28166,0.256l1.3912-0.862s-0.29618-0.5208-0.91325-0.845-1.6753-0.2999-2.5178,0.4694a0.81945,0.81945,0,0,0,-0.26459,0.606v10.626a0.81945,0.81945,0,0,0,0.08535,0.367l12.171,24.726h-27.602l12.171-24.726a0.81945,0.81945,0,0,0,0.08535,-0.367v-10.626a0.81945,0.81945,0,0,0,-0.26459,-0.606c-0.42213-0.3854-0.90031-0.5859-1.3485-0.6486z" style="baseline-shift:baseline;block-progression:tb;color:#000000;direction:ltr;text-indent:0;text-align:start;enable-background:accumulate;text-transform:none;"/>
   <path id="path3785" d="m27.617,1041a0.68366,0.68366,0,1,0,0.06828,1.3656h6.0258a0.68287,0.68287,0,1,0,0,-1.3656h-6.0258a0.68287,0.68287,0,0,0,-0.06828,0z" style="baseline-shift:baseline;block-progression:tb;color:#000000;direction:ltr;text-indent:0;text-align:start;enable-background:accumulate;text-transform:none;"/>
   <path id="path3787" d="m33.711,1037.9-4.5321,0.01a0.68287,0.68287,0,1,0,0,1.3656l4.5321-0.01a0.68287,0.68287,0,1,0,0,-1.3656z" style="baseline-shift:baseline;block-progression:tb;color:#000000;direction:ltr;text-indent:0;text-align:start;enable-background:accumulate;text-transform:none;"/>
   <path id="path3789" d="m30.63,1034.8a0.68366,0.68366,0,1,0,0.06828,1.3656h3.0129a0.68287,0.68287,0,1,0,0,-1.3656h-3.0129a0.68287,0.68287,0,0,0,-0.06828,0z" style="baseline-shift:baseline;block-progression:tb;color:#000000;direction:ltr;text-indent:0;text-align:start;enable-background:accumulate;text-transform:none;"/>
   <path id="path3836" style="text-align:start;" d="m212.8,1045.5c-0.00001,0.3784-0.13853,0.7027-0.41556,0.973-0.27027,0.2635-0.59461,0.3953-0.97299,0.3953-0.37839,0-0.7061-0.1318-0.98314-0.3953-0.27027-0.2703-0.40541-0.5946-0.40541-0.973s0.13514-0.7027,0.40541-0.973c0.27704-0.277,0.60475-0.4156,0.98314-0.4156,0.37838,0,0.70272,0.1386,0.97299,0.4156,0.27703,0.2703,0.41555,0.5946,0.41556,0.973"/>
   <path id="path3838" style="text-align:start;" d="m224.81,1040.5c-0.00001,0.7973-0.13515,1.5946-0.40541,2.3919-0.27029,0.7973-0.66219,1.4967-1.1757,2.098-0.52029,0.6217-1.1487,1.1217-1.8852,1.5001-0.72976,0.3716-1.5778,0.5574-2.544,0.5574-1.1216,0-2.0338-0.3615-2.7366-1.0845-0.69596-0.723-1.0439-1.696-1.0439-2.9189,0-0.8987,0.14865-1.7366,0.44595-2.5136,0.29731-0.7771,0.69596-1.4595,1.196-2.0474,0.50677-0.5878,1.1318-1.0608,1.875-1.4189,0.75001-0.3649,1.5608-0.5473,2.4325-0.5473,1.2027,0,2.1419,0.3682,2.8176,1.1047,0.68244,0.7298,1.0237,1.6892,1.0237,2.8785m-2.0676-0.3852c-0.00001-0.9595-0.17231-1.6791-0.5169-2.1588-0.33786-0.4798-0.82773-0.7196-1.4696-0.7196-0.56083,0-1.0912,0.1723-1.5913,0.5169-0.49326,0.3446-0.91894,0.9054-1.2771,1.6824-0.27704,0.5879-0.47974,1.2433-0.60812,1.9663-0.12839,0.7162-0.19258,1.3784-0.19257,1.9866-0.00001,0.9662,0.16554,1.6993,0.49663,2.1993,0.33784,0.4933,0.84461,0.7399,1.5203,0.7399,0.60136,0,1.1352-0.1892,1.6014-0.5676,0.46622-0.3783,0.84461-0.8581,1.1352-1.4392,0.29054-0.5676,0.51352-1.2162,0.66894-1.946,0.1554-0.7365,0.2331-1.4899,0.23311-2.2602"/>
   <path id="path3840" style="text-align:start;" d="m235.16,1038.1c-0.00002,0.1892-0.027,0.3987-0.0811,0.6284-0.0541,0.223-0.13177,0.4088-0.23311,0.5575-0.12164,0.1824-0.25677,0.3243-0.40542,0.4256-0.1419,0.095-0.34799,0.1419-0.61826,0.1419-0.36488,0-0.63853-0.091-0.82096-0.2736-0.18245-0.1824-0.27367-0.3852-0.27366-0.6081-0.00001-0.2095,0.0507-0.4426,0.15203-0.6994,0.10135-0.2635,0.20608-0.5236,0.3142-0.7804-0.0811,0-0.21623,0.024-0.40541,0.071-0.18245,0.041-0.40543,0.1251-0.66894,0.2534-0.26353,0.1284-0.56421,0.321-0.90205,0.5777-0.3311,0.2568-0.68583,0.598-1.0642,1.0237l-1.6318,7.257h-1.8852l1.4798-6.5678c0.0338-0.1621,0.0811-0.4054,0.1419-0.7297,0.0676-0.3243,0.10135-0.5642,0.10135-0.7196,0-0.3784-0.0642-0.6318-0.19257-0.7602-0.12839-0.1284-0.38515-0.1926-0.77029-0.1926-0.14866,0-0.33785,0.027-0.56759,0.081-0.22973,0.047-0.40879,0.088-0.53717,0.1216l0.15203-0.6486c0.52704-0.2365,0.99327-0.4122,1.3987-0.5271,0.40542-0.1148,0.7534-0.1722,1.044-0.1723,0.54055,0.0001,0.92569,0.1487,1.1554,0.446,0.22973,0.2906,0.3446,0.7298,0.34461,1.3176h0.0608c0.80407-0.696,1.4122-1.1825,1.8244-1.4595,0.41892-0.277,0.85474-0.4155,1.3075-0.4155,0.21621,0,0.42567,0.027,0.62839,0.081,0.2027,0.054,0.375,0.1453,0.5169,0.2737,0.14865,0.1419,0.25676,0.3074,0.32434,0.4966,0.0743,0.1825,0.11147,0.4494,0.11149,0.8007"/>
   <path id="path3842" style="text-align:start;" d="m242.24,1045.3-0.0709-0.02c-0.13515,0.1081-0.32772,0.2601-0.57772,0.4561-0.24326,0.1959-0.50002,0.3682-0.77029,0.5169-0.31083,0.1824-0.62502,0.3311-0.94259,0.4459-0.31758,0.1149-0.66894,0.1723-1.0541,0.1723-0.97976,0-1.7365-0.3446-2.2703-1.0338-0.52704-0.6959-0.79056-1.6521-0.79056-2.8683,0-0.8379,0.15203-1.6521,0.45609-2.4426,0.31082-0.7906,0.73313-1.4933,1.2669-2.1082,0.51352-0.5946,1.1284-1.071,1.8446-1.4291,0.71622-0.3648,1.4662-0.5473,2.25-0.5473,0.48649,0,0.94596,0.064,1.3784,0.1926,0.43243,0.1216,0.78041,0.2669,1.0439,0.4358l1.8548-0.4764,0.12162,0.1521-1.7027,7.9867c-0.25678,1.2095-0.58787,2.2298-0.99327,3.0609-0.39867,0.8378-0.86152,1.5-1.3886,1.9865-0.54056,0.5-1.1386,0.8547-1.794,1.0642-0.64866,0.2162-1.3852,0.3243-2.2095,0.3243-0.56083,0-1.0203-0.044-1.3784-0.1317-0.35136-0.088-0.6284-0.2028-0.8311-0.3446-0.20271-0.1419-0.34123-0.3041-0.41556-0.4865-0.0676-0.1757-0.10135-0.3446-0.10135-0.5068,0-0.3041,0.0912-0.5608,0.27366-0.7703,0.18243-0.2027,0.43244-0.3041,0.75002-0.3041,0.25,0,0.46284,0.071,0.63853,0.2129,0.17567,0.1487,0.31757,0.3074,0.42568,0.4764,0.11487,0.1756,0.22636,0.3851,0.33447,0.6283,0.10811,0.2433,0.18919,0.4257,0.24325,0.5474h0.30406c0.37163,0,0.77028-0.085,1.196-0.2534,0.42568-0.169,0.8142-0.4426,1.1656-0.821,0.35811-0.3919,0.69258-0.9189,1.0034-1.5811,0.31081-0.6554,0.55744-1.5,0.73988-2.5339m1.3581-6.4765c0-0.1892-0.0304-0.3817-0.0912-0.5777-0.0541-0.2027-0.15879-0.3885-0.31419-0.5574-0.14866-0.1622-0.33785-0.2906-0.56758-0.3852-0.22974-0.095-0.52367-0.1419-0.88178-0.1419-0.52029,0-1.0135,0.1588-1.4798,0.4764-0.45947,0.3108-0.87503,0.7399-1.2466,1.2872-0.34461,0.5135-0.62502,1.1352-0.84124,1.8649s-0.32433,1.4629-0.32433,2.1994c0,0.3986,0.027,0.7669,0.0811,1.1047,0.0608,0.3311,0.16217,0.6217,0.30406,0.8717,0.1419,0.25,0.32771,0.4459,0.55745,0.5878,0.23649,0.1352,0.54055,0.2027,0.91219,0.2027,0.47297,0,0.94258-0.1351,1.4088-0.4054,0.46623-0.277,0.9088-0.6284,1.3277-1.0541l1.1554-5.4731"/>
  </g>
 </g>
</svg>
