<?xml version="1.0" encoding="UTF-8" standalone="no"?>
<!-- Created with Inkscape (http://www.inkscape.org/) -->
<svg id="svg2" xmlns:rdf="http://www.w3.org/1999/02/22-rdf-syntax-ns#" xmlns="http://www.w3.org/2000/svg" height="45" width="216" version="1.1" xmlns:cc="http://creativecommons.org/ns#" xmlns:dc="http://purl.org/dc/elements/1.1/">
 <defs id="defs4"></defs>
 <metadata id="metadata7">
  <rdf:RDF>
   <cc:Work rdf:about="">
    <dc:format>image/svg+xml</dc:format>
    <dc:type rdf:resource="http://purl.org/dc/dcmitype/StillImage"/>
    <dc:title/>
   </cc:Work>
  </rdf:RDF>
 </metadata>
 <g id="layer1" transform="translate(0,-1007.3622)">
  <g id="g3919" transform="matrix(0.24245837,0,0,0.24245837,-8.3800175,798.95399)" stroke="#000" stroke-dasharray="none" stroke-miterlimit="4" stroke-width="1" fill="#FFF">
   <path id="path3762" style="text-align:start;" d="m101.66,919.97-6.5302,2.228c-1.7927-5.4801-4.7633-9.6287-8.9118-12.446-4.0974-2.8168-8.5789-4.2253-13.445-4.2254-5.89,0.0001-10.704,1.8951-14.443,5.6851-3.6877,3.7902-5.5315,8.4253-5.5315,13.905-0.000025,2.817,0.64019,5.3779,1.9206,7.6826,1.2804,2.3048,2.9962,4.2767,5.1473,5.9156,2.1511,1.639,4.6095,3.1755,7.3753,4.6096,2.8169,1.3829,5.7619,2.7146,8.835,3.9949,3.1242,1.2805,6.2228,2.6378,9.2959,4.0718,3.1242,1.3829,6.0692,2.9963,8.835,4.84,2.8169,1.8439,5.3009,3.8926,7.4521,6.1461,2.151,2.2536,3.8668,5.0193,5.1473,8.2972,1.2804,3.2779,1.9206,6.9144,1.9206,10.909-0.00008,6.6582-1.7158,12.625-5.1473,17.9-3.4316,5.2754-7.8875,9.296-13.368,12.062-5.4803,2.7657-11.396,4.1486-17.747,4.1486-4.1486,0-8.118-0.6659-11.908-1.9975-3.7901-1.3316-7.3241-3.3035-10.602-5.9156-3.2779-2.6633-6.0692-6.1972-8.374-10.602-2.3048-4.4046-3.8157-9.4495-4.5327-15.135l6.8375-0.84508c1.2804,9.2191,4.5583,16.108,9.8337,20.666,5.3266,4.5072,11.575,6.7607,18.745,6.7607,5.0704,0,9.808-1.0499,14.213-3.1499,4.4046-2.1511,8.0154-5.3265,10.832-9.5263,2.8681-4.251,4.3022-9.1166,4.3022-14.597-0.00008-3.4315-0.64029-6.5302-1.9206-9.2959-1.2805-2.7657-2.9963-5.0961-5.1473-6.9911-2.1512-1.895-4.6352-3.6364-7.4521-5.2242-2.7658-1.5877-5.7108-3.0218-8.835-4.3022-3.0731-1.3316-6.1717-2.6632-9.2959-3.9949-3.0731-1.3316-6.0181-2.8169-8.835-4.4559-2.7658-1.6389-5.2242-3.4315-7.3753-5.3778-2.1511-1.9462-3.8669-4.3278-5.1473-7.1448-1.2804-2.8681-1.9207-6.0691-1.9206-9.6032-0.000018-7.3752,2.5096-13.649,7.5289-18.822,5.0192-5.224,11.473-7.8361,19.36-7.8362,6.146,0.00011,11.908,1.9208,17.286,5.7619,5.429,3.7902,9.2958,9.0911,11.601,15.903"/>
   <path id="path3766" style="text-align:start;" d="m229.11,1014.4-6.7607,0,21.972-116.08,41.87,99.566,42.561-99.566,21.358,116.08-7.2216,0-16.825-92.191-40.334,93.497-39.104-93.497-17.516,92.191"/>
   <path id="path3768" style="text-align:start;" d="m365.56,1014.4,0-114.85,40.718,0c8.2459,0.00011,15.237,2.9707,20.973,8.9118,5.7362,5.9413,8.6044,13.086,8.6045,21.434-0.00009,8.4509-2.8682,15.673-8.6045,21.665-5.6852,5.9925-12.599,8.9887-20.743,8.9886h-34.034v53.855h-6.9143m6.9143-61.076,34.034,0c6.0948,0.00007,11.319-2.2791,15.672-6.8375,4.4046-4.5582,6.6069-10.09,6.607-16.594-0.00008-6.5045-2.2024-12.036-6.607-16.594-4.4047-4.6094-9.7057-6.9142-15.903-6.9143h-33.803v46.941"/>
   <path id="path3770" style="text-align:start;" d="m524.74,1014.4-66.685,0,0-114.7,6.9143,0,0,107.79,59.77,0,0,6.9143"/>
   <path id="path3772" style="text-align:start;" d="m604.18,944.32,0,6.9143-55.007,0,0,56.236,59.463,0,0,6.9143-66.377,0,0-114.7,66.685,0,0,6.9143-59.77,0,0,37.721,55.007,0"/>
   <path id="path3774" style="text-align:start;" d="m687.69,919.97-6.5302,2.228c-1.7927-5.4801-4.7633-9.6287-8.9118-12.446-4.0974-2.8168-8.5789-4.2253-13.444-4.2254-5.89,0.0001-10.704,1.8951-14.443,5.6851-3.6877,3.7902-5.5315,8.4253-5.5314,13.905-0.00003,2.817,0.64018,5.3779,1.9206,7.6826,1.2804,2.3048,2.9962,4.2767,5.1473,5.9156,2.1511,1.639,4.6095,3.1755,7.3753,4.6096,2.8169,1.3829,5.7619,2.7146,8.835,3.9949,3.1242,1.2805,6.2228,2.6378,9.2959,4.0718,3.1242,1.3829,6.0692,2.9963,8.835,4.84,2.8169,1.8439,5.3009,3.8926,7.4521,6.1461,2.151,2.2536,3.8668,5.0193,5.1473,8.2972,1.2804,3.2779,1.9206,6.9144,1.9206,10.909-0.00008,6.6582-1.7158,12.625-5.1473,17.9-3.4316,5.2754-7.8875,9.296-13.368,12.062-5.4803,2.7657-11.396,4.1486-17.747,4.1486-4.1486,0-8.118-0.6659-11.908-1.9975-3.7901-1.3316-7.3241-3.3035-10.602-5.9156-3.2779-2.6633-6.0692-6.1972-8.374-10.602-2.3048-4.4046-3.8157-9.4495-4.5327-15.135l6.8375-0.84508c1.2804,9.2191,4.5583,16.108,9.8337,20.666,5.3266,4.5072,11.575,6.7607,18.745,6.7607,5.0704,0,9.808-1.0499,14.213-3.1499,4.4046-2.1511,8.0154-5.3265,10.832-9.5263,2.8681-4.251,4.3022-9.1166,4.3022-14.597-0.00008-3.4315-0.64029-6.5302-1.9206-9.2959-1.2805-2.7657-2.9963-5.0961-5.1473-6.9911-2.1512-1.895-4.6352-3.6364-7.4521-5.2242-2.7658-1.5877-5.7108-3.0218-8.835-4.3022-3.0731-1.3316-6.1717-2.6632-9.2959-3.9949-3.0731-1.3316-6.018-2.8169-8.835-4.4559-2.7658-1.6389-5.2242-3.4315-7.3753-5.3778-2.1512-1.9462-3.8669-4.3278-5.1473-7.1448-1.2804-2.8681-1.9207-6.0691-1.9206-9.6032-0.00002-7.3752,2.5096-13.649,7.5289-18.822,5.0192-5.224,11.473-7.8361,19.36-7.8362,6.146,0.00011,11.908,1.9208,17.286,5.7619,5.429,3.7902,9.2958,9.0911,11.601,15.903"/>
   <path id="path3781" style="text-align:start;" d="m712.99,995.53c-0.00001,3.312,0.74399,5.976,2.232,7.992s3.696,3.024,6.624,3.024c0.95998,0,1.848-0.024,2.664-0.072,0.81598-0.096,1.488-0.192,2.016-0.288v-19.512c-0.67202-0.43197-1.56-0.79197-2.664-1.08-1.056-0.28797-2.136-0.43197-3.24-0.432-5.088,0.00003-7.632,3.456-7.632,10.368m24.264,18c-0.96003,0.288-2.064,0.576-3.312,0.864-1.248,0.24-2.568,0.456-3.96,0.648-1.344,0.192-2.736,0.336-4.176,0.432-1.392,0.144-2.736,0.216-4.032,0.216-3.12,0-5.904-0.456-8.352-1.368s-4.512-2.208-6.192-3.888c-1.68-1.728-2.976-3.792-3.888-6.192-0.864-2.448-1.296-5.184-1.296-8.208,0-3.072,0.384-5.832,1.152-8.28,0.768-2.496,1.872-4.608,3.312-6.336s3.192-3.048,5.256-3.96c2.112-0.91196,4.512-1.368,7.2-1.368,1.488,0.00004,2.808,0.14404,3.96,0.432,1.2,0.28804,2.4,0.69604,3.6,1.224v-17.136l10.728-1.728v54.648"/>
   <path id="path3783" style="text-align:start;" d="m771.56,995.53c-0.00003-6.912-2.544-10.368-7.632-10.368-1.104,0.00003-2.208,0.14403-3.312,0.432-1.056,0.28803-1.92,0.64803-2.592,1.08v19.512c0.52798,0.096,1.2,0.192,2.016,0.288,0.81598,0.048,1.704,0.072,2.664,0.072,2.928,0,5.136-1.008,6.624-3.024s2.232-4.68,2.232-7.992m10.944,0.288c-0.00004,3.024-0.45604,5.76-1.368,8.208-0.86404,2.448-2.136,4.536-3.816,6.264s-3.744,3.072-6.192,4.032c-2.448,0.912-5.232,1.368-8.352,1.368-1.296,0-2.664-0.072-4.104-0.216-1.392-0.096-2.784-0.24-4.176-0.432-1.344-0.192-2.64-0.408-3.888-0.648-1.248-0.288-2.352-0.576-3.312-0.864v-52.92l10.728-1.728v18.864c1.2-0.52796,2.448-0.93596,3.744-1.224,1.296-0.28796,2.688-0.43196,4.176-0.432,2.688,0.00004,5.064,0.48004,7.128,1.44,2.064,0.91204,3.792,2.232,5.184,3.96s2.448,3.816,3.168,6.264c0.71996,2.4,1.08,5.088,1.08,8.064"/>
   <path id="path3773" style="baseline-shift:baseline;block-progression:tb;color:#000000;direction:ltr;text-indent:0;text-align:start;enable-background:accumulate;text-transform:none;" d="m148.85,874.3c-1.6411-0.22974-3.1822,0.0599-4.3125,0.65625-2.2605,1.1927-3.3438,3.125-3.3438,3.125l5.125,3.125s0.50423-0.65944,1.0312-0.9375c0.37302-0.19681,0.719-0.22746,1.4062,0.1875v36.656l-46.375,94.25a3.0003,3.0003,0,0,0,2.6875,4.3125h110.69a3.0003,3.0003,0,0,0,2.6875,-4.3125l-46.375-94.25v-36.688c0.65883-0.38497,1.0351-0.35125,1.4062-0.15625,0.53255,0.27979,1.0312,0.9375,1.0312,0.9375l5.0938-3.1562s-1.0844-1.9068-3.3438-3.0938c-2.2593-1.187-6.1338-1.0981-9.2188,1.7188a3.0003,3.0003,0,0,0,-0.96875,2.2188v38.906a3.0003,3.0003,0,0,0,0.3125,1.3438l44.562,90.531h-101.06l44.562-90.531a3.0003,3.0003,0,0,0,0.3125,-1.3438v-38.906a3.0003,3.0003,0,0,0,-0.96875,-2.2188c-1.5456-1.4113-3.2964-2.1453-4.9375-2.375z"/>
   <path id="path3785" style="baseline-shift:baseline;block-progression:tb;color:#000000;direction:ltr;text-indent:0;text-align:start;enable-background:accumulate;text-transform:none;" d="m123.45,993.05a2.5031,2.5031,0,1,0,0.25,5h22.062a2.5002,2.5002,0,1,0,0,-5h-22.062a2.5002,2.5002,0,0,0,-0.25,0z"/>
   <path id="path3787" style="baseline-shift:baseline;block-progression:tb;color:#000000;direction:ltr;text-indent:0;text-align:start;enable-background:accumulate;text-transform:none;" d="m145.76,981.84-16.594,0.0312a2.5002,2.5002,0,1,0,0,5l16.594-0.0312a2.5002,2.5002,0,1,0,0,-5z"/>
   <path id="path3789" style="baseline-shift:baseline;block-progression:tb;color:#000000;direction:ltr;text-indent:0;text-align:start;enable-background:accumulate;text-transform:none;" d="m134.48,970.62a2.5031,2.5031,0,1,0,0.25,5h11.031a2.5002,2.5002,0,1,0,0,-5h-11.031a2.5002,2.5002,0,0,0,-0.25,0z"/>
   <path id="path3836" style="text-align:start;" d="m801.45,1009.8c-0.00002,1.3854-0.50718,2.5729-1.5215,3.5625-0.98959,0.9649-2.1771,1.4473-3.5625,1.4473s-2.5853-0.4824-3.5996-1.4473c-0.98958-0.9896-1.4844-2.1771-1.4844-3.5625-0.00001-1.3854,0.49479-2.5729,1.4844-3.5625,1.0143-1.0143,2.2142-1.5215,3.5996-1.5215s2.5729,0.5072,3.5625,1.5215c1.0143,0.9896,1.5215,2.1771,1.5215,3.5625"/>
   <path id="path3838" style="text-align:start;" d="m845.43,991.16c-0.00004,2.9193-0.49483,5.8386-1.4844,8.7578-0.98962,2.9193-2.4245,5.4799-4.3047,7.6817-1.905,2.276-4.2058,4.1067-6.9024,5.4922-2.6719,1.3606-5.7767,2.041-9.3144,2.041-4.1068,0-7.4466-1.3236-10.02-3.9707-2.5482-2.6472-3.8223-6.2097-3.8223-10.688,0-3.2904,0.54427-6.3581,1.6328-9.2032,1.0885-2.845,2.5482-5.3437,4.3789-7.4961,1.8555-2.1523,4.1439-3.8841,6.8652-5.1953,2.7461-1.3359,5.7148-2.0039,8.9062-2.0039,4.4036,0.00003,7.8424,1.3483,10.316,4.0449,2.4987,2.6719,3.748,6.1849,3.748,10.539m-7.5703-1.4102c-0.00004-3.513-0.63089-6.1478-1.8926-7.9043-1.237-1.7565-3.0306-2.6347-5.3809-2.6348-2.0534,0.00004-3.9955,0.6309-5.8262,1.8926-1.806,1.2618-3.3646,3.3151-4.6758,6.1602-1.0143,2.1524-1.7565,4.5521-2.2266,7.1992-0.47006,2.6224-0.70509,5.0469-0.70508,7.2734-0.00001,3.5378,0.60611,6.222,1.8184,8.0527,1.237,1.806,3.0924,2.709,5.5664,2.709,2.2018,0,4.1562-0.6927,5.8633-2.0781,1.707-1.3854,3.0924-3.1419,4.1562-5.2695,1.0638-2.0782,1.8802-4.4532,2.4492-7.125,0.56898-2.6966,0.85348-5.4551,0.85352-8.2754"/>
   <path id="path3840" style="text-align:start;" d="m883.32,982.63c-0.00004,0.69274-0.099,1.4597-0.29688,2.3008-0.19795,0.81643-0.48245,1.4968-0.85351,2.041-0.44535,0.668-0.94014,1.1875-1.4844,1.5586-0.51956,0.34637-1.2741,0.51955-2.2637,0.51953-1.336,0.00002-2.3379-0.33396-3.0059-1.002-0.66799-0.66794-1.002-1.4101-1.002-2.2266-0.00003-0.7669,0.18552-1.6204,0.55664-2.5606,0.37107-0.96481,0.75453-1.9173,1.1504-2.8574-0.2969,0.00004-0.79169,0.0866-1.4844,0.25977-0.668,0.14847-1.4844,0.45771-2.4492,0.92773-0.96487,0.47009-2.0658,1.1752-3.3027,2.1152-1.2123,0.94013-2.5111,2.1895-3.8965,3.748l-5.9746,26.57h-6.9023l5.418-24.047c0.12369-0.59372,0.29687-1.4844,0.51954-2.6719,0.24738-1.1875,0.37108-2.0657,0.37109-2.6348-0.00001-1.3854-0.23504-2.3131-0.70508-2.7832-0.47006-0.47002-1.4102-0.70505-2.8203-0.70508-0.54428,0.00003-1.237,0.099-2.0781,0.29687-0.84115,0.17321-1.4967,0.32165-1.9668,0.44532l0.55664-2.375c1.9297-0.86585,3.6367-1.5091,5.1211-1.9297,1.4844-0.42054,2.7584-0.63082,3.8223-0.63086,1.9792,0.00004,3.3893,0.54431,4.2305,1.6328,0.84112,1.0638,1.2617,2.6719,1.2617,4.8242h0.22266c2.944-2.5481,5.1706-4.3294,6.6797-5.3438,1.5338-1.0143,3.1295-1.5214,4.7871-1.5215,0.79163,0.00003,1.5586,0.099,2.3008,0.29687,0.74215,0.19796,1.373,0.53194,1.8926,1.002,0.54423,0.51957,0.94007,1.1257,1.1875,1.8184,0.2721,0.66801,0.40816,1.6452,0.4082,2.9316"/>
   <path id="path3842" style="text-align:start;" d="m909.26,1009-0.25976-0.074c-0.49482,0.3959-1.1999,0.9525-2.1152,1.6699-0.89065,0.7175-1.8308,1.3484-2.8203,1.8926-1.138,0.668-2.2884,1.2123-3.4512,1.6328-1.1628,0.4206-2.4492,0.6309-3.8594,0.6309-3.5872,0-6.3581-1.2617-8.3125-3.7852-1.9297-2.5481-2.8945-6.0488-2.8945-10.502,0-3.0677,0.55664-6.0488,1.6699-8.9434,1.138-2.8945,2.6842-5.4674,4.6387-7.7188,1.8802-2.177,4.1315-3.9212,6.7539-5.2324,2.6224-1.3359,5.3685-2.0039,8.2383-2.0039,1.7812,0.00003,3.4635,0.23506,5.0469,0.70507,1.5833,0.44535,2.8574,0.97725,3.8223,1.5957l6.791-1.7441,0.44531,0.55664-6.2344,29.242c-0.94014,4.4284-2.1524,8.1641-3.6367,11.207-1.4597,3.0677-3.1543,5.4921-5.084,7.2734-1.9792,1.8307-4.1686,3.1295-6.5684,3.8965-2.375,0.7916-5.0716,1.1875-8.0898,1.1875-2.0534,0-3.7357-0.1609-5.0469-0.4824-1.2865-0.3217-2.3008-0.7423-3.043-1.2618-0.74219-0.5195-1.2494-1.1133-1.5215-1.7812-0.24739-0.6433-0.37109-1.2617-0.37109-1.8555,0-1.1133,0.33398-2.0534,1.002-2.8203,0.66797-0.7422,1.5833-1.1133,2.7461-1.1133,0.91536,0,1.6946,0.2598,2.3379,0.7793,0.64322,0.5443,1.1628,1.1257,1.5586,1.7442,0.42056,0.6432,0.82877,1.4101,1.2246,2.3007,0.39582,0.8907,0.6927,1.5586,0.89062,2.0039h1.1133c1.3607,0,2.8203-0.3092,4.3789-0.9277s2.9811-1.6204,4.2676-3.0058c1.3112-1.435,2.5358-3.3646,3.6738-5.7891,1.138-2.3998,2.041-5.4922,2.709-9.2774m4.9727-23.713c-0.00003-0.69268-0.11136-1.3978-0.33399-2.1152-0.19794-0.74216-0.58141-1.4225-1.1504-2.041-0.5443-0.59372-1.237-1.0638-2.0781-1.4102-0.84117-0.34632-1.9173-0.51949-3.2285-0.51953-1.905,0.00004-3.711,0.58142-5.418,1.7441-1.6823,1.1381-3.2038,2.709-4.5644,4.7129-1.2617,1.8802-2.2884,4.1563-3.0801,6.8281-0.79167,2.6719-1.1875,5.3561-1.1875,8.0527-0.00001,1.4597,0.099,2.808,0.29688,4.0449,0.22264,1.2123,0.59374,2.2761,1.1133,3.1914,0.51952,0.9154,1.1999,1.6329,2.041,2.1524,0.86587,0.4948,1.9792,0.7422,3.3398,0.7422,1.7318,0,3.4512-0.4948,5.1582-1.4844,1.707-1.0143,3.3274-2.3008,4.8613-3.8594l4.2305-20.039"/>
  </g>
 </g>
</svg>
