<?xml version="1.0" encoding="UTF-8" standalone="no"?>
<!-- Created with Inkscape (http://www.inkscape.org/) -->

<svg
   xmlns:dc="http://purl.org/dc/elements/1.1/"
   xmlns:cc="http://creativecommons.org/ns#"
   xmlns:rdf="http://www.w3.org/1999/02/22-rdf-syntax-ns#"
   xmlns:svg="http://www.w3.org/2000/svg"
   xmlns="http://www.w3.org/2000/svg"
   xmlns:sodipodi="http://sodipodi.sourceforge.net/DTD/sodipodi-0.dtd"
   xmlns:inkscape="http://www.inkscape.org/namespaces/inkscape"
   width="250"
   height="45"
   id="svg2"
   version="1.1"
   inkscape:version="0.48.3.1 r9886"
   sodipodi:docname="logo_small.svg">
  <defs
     id="defs4">
    <filter
       inkscape:collect="always"
       id="filter3909">
      <feGaussianBlur
         inkscape:collect="always"
         stdDeviation="1.4232077"
         id="feGaussianBlur3911" />
    </filter>
  </defs>
  <sodipodi:namedview
     id="base"
     pagecolor="#ffffff"
     bordercolor="#666666"
     borderopacity="1.0"
     inkscape:pageopacity="0.0"
     inkscape:pageshadow="2"
     inkscape:zoom="3.9525416"
     inkscape:cx="138.63918"
     inkscape:cy="18.866349"
     inkscape:document-units="px"
     inkscape:current-layer="layer1"
     showgrid="false"
     inkscape:snap-page="true"
     inkscape:snap-bbox="true"
     inkscape:window-width="1855"
     inkscape:window-height="1056"
     inkscape:window-x="65"
     inkscape:window-y="24"
     inkscape:window-maximized="1" />
  <metadata
     id="metadata7">
    <rdf:RDF>
      <cc:Work
         rdf:about="">
        <dc:format>image/svg+xml</dc:format>
        <dc:type
           rdf:resource="http://purl.org/dc/dcmitype/StillImage" />
        <dc:title />
      </cc:Work>
    </rdf:RDF>
  </metadata>
  <g
     inkscape:label="Layer 1"
     inkscape:groupmode="layer"
     id="layer1"
     transform="translate(0,-1007.3622)">
    <g
       style="stroke:none;fill:#000000;fill-opacity:1;filter:url(#filter3909)"
       id="g3867">
      <path
         style="font-size:157.33911133000000859px;font-style:normal;font-variant:normal;font-weight:normal;font-stretch:normal;text-align:start;line-height:125%;letter-spacing:0px;word-spacing:0px;writing-mode:lr-tb;text-anchor:start;fill:#000000;fill-opacity:1;stroke:none;stroke-width:0.25000000000000000;stroke-miterlimit:4;stroke-opacity:0.75294119000000004;stroke-dasharray:none;font-family:Sawasdee;-inkscape-font-specification:Sawasdee"
         inkscape:connector-curvature="0"
         id="path3869"
         d="m 21.666857,1021.015 -1.783538,0.6085 c -0.489616,-1.4968 -1.300951,-2.6298 -2.434005,-3.3992 -1.119097,-0.7694 -2.343093,-1.1541 -3.67199,-1.1541 -1.608693,0 -2.923614,0.5176 -3.9447678,1.5527 -1.0071821,1.0352 -1.5107687,2.3012 -1.5107619,3.7979 -6.8e-6,0.7694 0.1748495,1.4689 0.52457,2.0983 0.3497058,0.6295 0.8183213,1.1681 1.4058477,1.6157 0.587509,0.4476 1.258958,0.8673 2.01435,1.259 0.769357,0.3777 1.573697,0.7414 2.413022,1.0911 0.853287,0.3497 1.699592,0.7204 2.538919,1.1121 0.853284,0.3777 1.657624,0.8183 2.413023,1.3219 0.76935,0.5036 1.447794,1.0631 2.035331,1.6786 0.587499,0.6155 1.056114,1.3709 1.405849,2.2661 0.349692,0.8953 0.524548,1.8885 0.524569,2.9796 -2.1e-5,1.8185 -0.468636,3.4482 -1.405846,4.889 -0.937254,1.4408 -2.154254,2.5389 -3.651009,3.2943 -1.496789,0.7554 -3.112463,1.1331 -4.847028,1.1331 -1.133082,0 -2.217193,-0.1819 -3.252335,-0.5456 -1.0351593,-0.3637 -2.0003672,-0.9023 -2.8956264,-1.6157 -0.8952717,-0.7274 -1.6576461,-1.6926 -2.2871258,-2.8956 -0.6294874,-1.203 -1.0421486,-2.5809 -1.2379853,-4.1336 l 1.8674694,-0.2308 c 0.3497088,2.5179 1.2449739,4.3994 2.6857991,5.6443 1.454799,1.2311 3.161399,1.8465 5.119804,1.8465 1.384852,0 2.67879,-0.2867 3.881819,-0.8603 1.202997,-0.5875 2.189188,-1.4547 2.958575,-2.6018 0.783338,-1.1611 1.175017,-2.49 1.175039,-3.9868 -2.2e-5,-0.9372 -0.174878,-1.7835 -0.524572,-2.5389 -0.349732,-0.7553 -0.818348,-1.3918 -1.405847,-1.9094 -0.587537,-0.5176 -1.26598,-0.9932 -2.035333,-1.4268 -0.755396,-0.4337 -1.559736,-0.8253 -2.413022,-1.1751 -0.839325,-0.3637 -1.685631,-0.7274 -2.538919,-1.0911 -0.839323,-0.3637 -1.643663,-0.7693 -2.413023,-1.217 -0.7553889,-0.4476 -1.4268382,-0.9372 -2.0143492,-1.4688 -0.5875249,-0.5315 -1.0561404,-1.182 -1.4058478,-1.9514 -0.3497186,-0.7833 -0.5245752,-1.6576 -0.5245703,-2.6228 -4.9e-6,-2.0144 0.6854327,-3.7279 2.0563151,-5.1408 1.3708679,-1.4268 3.1334222,-2.1402 5.2876672,-2.1403 1.67861,10e-5 3.252319,0.5246 4.721131,1.5737 1.482766,1.0352 2.538899,2.483 3.168402,4.3435" />
      <path
         style="font-size:157.33911133000000859px;font-style:normal;font-variant:normal;font-weight:normal;font-stretch:normal;text-align:start;line-height:125%;letter-spacing:0px;word-spacing:0px;writing-mode:lr-tb;text-anchor:start;fill:#000000;fill-opacity:1;stroke:none;stroke-width:0.25000000000000000;stroke-miterlimit:4;stroke-opacity:0.75294119000000004;stroke-dasharray:none;font-family:Sawasdee;-inkscape-font-specification:Sawasdee"
         inkscape:connector-curvature="0"
         id="path3871"
         d="m 56.47733,1046.8028 -1.846486,0 6.001082,-31.705 11.435629,27.1938 11.624475,-27.1938 5.833218,31.705 -1.972384,0 -4.595235,-25.1793 -11.015972,25.5361 -10.680247,-25.5361 -4.78408,25.1793" />
      <path
         style="font-size:157.33911133000000859px;font-style:normal;font-variant:normal;font-weight:normal;font-stretch:normal;text-align:start;line-height:125%;letter-spacing:0px;word-spacing:0px;writing-mode:lr-tb;text-anchor:start;fill:#000000;fill-opacity:1;stroke:none;stroke-width:0.25000000000000000;stroke-miterlimit:4;stroke-opacity:0.75294119000000004;stroke-dasharray:none;font-family:Sawasdee;-inkscape-font-specification:Sawasdee"
         inkscape:connector-curvature="0"
         id="path3873"
         d="m 93.742791,1046.8028 0,-31.3692 11.120889,0 c 2.25214,0 4.16157,0.8113 5.7283,2.434 1.5667,1.6227 2.35005,3.5741 2.35008,5.8542 -3e-5,2.3081 -0.78338,4.2805 -2.35008,5.9171 -1.55274,1.6367 -3.44119,2.455 -5.66535,2.455 l -9.295386,0 0,14.7089 -1.888453,0 m 1.888453,-16.6813 9.295386,0 c 1.66462,0 3.09145,-0.6224 4.28049,-1.8674 1.20299,-1.245 1.8045,-2.7558 1.80452,-4.5323 -2e-5,-1.7765 -0.60153,-3.2873 -1.80452,-4.5323 -1.20303,-1.259 -2.65085,-1.8884 -4.34344,-1.8885 l -9.232436,0 0,12.8205" />
      <path
         style="font-size:157.33911133000000859px;font-style:normal;font-variant:normal;font-weight:normal;font-stretch:normal;text-align:start;line-height:125%;letter-spacing:0px;word-spacing:0px;writing-mode:lr-tb;text-anchor:start;fill:#000000;fill-opacity:1;stroke:none;stroke-width:0.25000000000000000;stroke-miterlimit:4;stroke-opacity:0.75294119000000004;stroke-dasharray:none;font-family:Sawasdee;-inkscape-font-specification:Sawasdee"
         inkscape:connector-curvature="0"
         id="path3875"
         d="m 137.21916,1046.8028 -18.21307,0 0,-31.3273 1.88845,0 0,29.4389 16.32462,0 0,1.8884" />
      <path
         style="font-size:157.33911133000000859px;font-style:normal;font-variant:normal;font-weight:normal;font-stretch:normal;text-align:start;line-height:125%;letter-spacing:0px;word-spacing:0px;writing-mode:lr-tb;text-anchor:start;fill:#000000;fill-opacity:1;stroke:none;stroke-width:0.25000000000000000;stroke-miterlimit:4;stroke-opacity:0.75294119000000004;stroke-dasharray:none;font-family:Sawasdee;-inkscape-font-specification:Sawasdee"
         inkscape:connector-curvature="0"
         id="path3877"
         d="m 158.91539,1027.6665 0,1.8885 -15.02369,0 0,15.3594 16.24069,0 0,1.8884 -18.12914,0 0,-31.3273 18.21307,0 0,1.8885 -16.32462,0 0,10.3025 15.02369,0" />
      <path
         style="font-size:157.33911133000000859px;font-style:normal;font-variant:normal;font-weight:normal;font-stretch:normal;text-align:start;line-height:125%;letter-spacing:0px;word-spacing:0px;writing-mode:lr-tb;text-anchor:start;fill:#000000;fill-opacity:1;stroke:none;stroke-width:0.25000000000000000;stroke-miterlimit:4;stroke-opacity:0.75294119000000004;stroke-dasharray:none;font-family:Sawasdee;-inkscape-font-specification:Sawasdee"
         inkscape:connector-curvature="0"
         id="path3879"
         d="m 181.72369,1021.015 -1.78354,0.6085 c -0.48961,-1.4968 -1.30095,-2.6298 -2.434,-3.3992 -1.1191,-0.7694 -2.34309,-1.1541 -3.67199,-1.1541 -1.60869,0 -2.92362,0.5176 -3.94477,1.5527 -1.00718,1.0352 -1.51077,2.3012 -1.51076,3.7979 -10e-6,0.7694 0.17485,1.4689 0.52457,2.0983 0.3497,0.6295 0.81832,1.1681 1.40585,1.6157 0.58751,0.4476 1.25895,0.8673 2.01435,1.259 0.76935,0.3777 1.57369,0.7414 2.41302,1.0911 0.85328,0.3497 1.69959,0.7204 2.53892,1.1121 0.85328,0.3777 1.65762,0.8183 2.41302,1.3219 0.76935,0.5036 1.44779,1.0631 2.03533,1.6786 0.5875,0.6155 1.05611,1.3709 1.40585,2.2661 0.34969,0.8953 0.52455,1.8885 0.52457,2.9796 -2e-5,1.8185 -0.46864,3.4482 -1.40585,4.889 -0.93725,1.4408 -2.15425,2.5389 -3.65101,3.2943 -1.49678,0.7554 -3.11246,1.1331 -4.84702,1.1331 -1.13309,0 -2.2172,-0.1819 -3.25234,-0.5456 -1.03516,-0.3637 -2.00037,-0.9023 -2.89563,-1.6157 -0.89527,-0.7274 -1.65764,-1.6926 -2.28712,-2.8956 -0.62949,-1.203 -1.04215,-2.5809 -1.23799,-4.1336 l 1.86747,-0.2308 c 0.34971,2.5179 1.24498,4.3994 2.6858,5.6443 1.4548,1.2311 3.1614,1.8465 5.11981,1.8465 1.38485,0 2.67879,-0.2867 3.88182,-0.8603 1.20299,-0.5875 2.18918,-1.4547 2.95857,-2.6018 0.78334,-1.1611 1.17502,-2.49 1.17504,-3.9868 -2e-5,-0.9372 -0.17488,-1.7835 -0.52457,-2.5389 -0.34974,-0.7553 -0.81835,-1.3918 -1.40585,-1.9094 -0.58754,-0.5176 -1.26598,-0.9932 -2.03533,-1.4268 -0.7554,-0.4337 -1.55974,-0.8253 -2.41303,-1.1751 -0.83932,-0.3637 -1.68563,-0.7274 -2.53891,-1.0911 -0.83933,-0.3637 -1.64367,-0.7693 -2.41303,-1.217 -0.75539,-0.4476 -1.42684,-0.9372 -2.01435,-1.4688 -0.58752,-0.5315 -1.05614,-1.182 -1.40584,-1.9514 -0.34972,-0.7833 -0.52458,-1.6576 -0.52457,-2.6228 -1e-5,-2.0144 0.68543,-3.7279 2.05631,-5.1408 1.37087,-1.4268 3.13342,-2.1402 5.28767,-2.1403 1.67861,10e-5 3.25232,0.5246 4.72113,1.5737 1.48276,1.0352 2.5389,2.483 3.1684,4.3435" />
      <path
         style="font-size:72px;font-style:normal;font-variant:normal;font-weight:bold;font-stretch:normal;text-align:start;line-height:125%;letter-spacing:0px;word-spacing:0px;writing-mode:lr-tb;text-anchor:start;fill:#000000;fill-opacity:1;stroke:none;stroke-width:0.25000000000000000;stroke-miterlimit:4;stroke-opacity:0.75294119000000004;stroke-dasharray:none;font-family:Ubuntu;-inkscape-font-specification:Ubuntu Bold"
         id="path3881"
         d="m 188.63518,1041.6534 c -1e-5,0.9046 0.2032,1.6322 0.6096,2.1828 0.4064,0.5506 1.00946,0.8259 1.80916,0.8259 0.2622,0 0.50473,-0.01 0.7276,-0.02 0.22286,-0.026 0.4064,-0.053 0.55062,-0.079 l 0,-5.3292 c -0.18355,-0.1179 -0.42608,-0.2163 -0.7276,-0.2949 -0.28842,-0.079 -0.5834,-0.118 -0.88492,-0.118 -1.38964,0 -2.08447,0.9439 -2.08446,2.8317 m 6.62703,4.9162 c -0.26221,0.079 -0.56373,0.1573 -0.90458,0.236 -0.34087,0.066 -0.70139,0.1245 -1.08156,0.177 -0.36709,0.052 -0.74727,0.092 -1.14056,0.118 -0.38019,0.039 -0.74727,0.059 -1.10123,0.059 -0.85215,0 -1.61252,-0.1246 -2.28112,-0.3737 -0.6686,-0.249 -1.23233,-0.603 -1.69117,-1.0619 -0.45884,-0.4719 -0.81281,-1.0356 -1.0619,-1.6911 -0.23597,-0.6686 -0.35396,-1.4159 -0.35396,-2.2418 0,-0.8391 0.10488,-1.5929 0.31463,-2.2615 0.20976,-0.6817 0.51129,-1.2585 0.90458,-1.7305 0.3933,-0.4719 0.87181,-0.8324 1.43553,-1.0815 0.57684,-0.2491 1.23233,-0.3737 1.96648,-0.3737 0.4064,0 0.76692,0.039 1.08157,0.118 0.32774,0.079 0.65548,0.1901 0.98324,0.3343 l 0,-4.6802 2.93005,-0.472 0,14.9256"
         inkscape:connector-curvature="0" />
      <path
         style="font-size:72px;font-style:normal;font-variant:normal;font-weight:bold;font-stretch:normal;text-align:start;line-height:125%;letter-spacing:0px;word-spacing:0px;writing-mode:lr-tb;text-anchor:start;fill:#000000;fill-opacity:1;stroke:none;stroke-width:0.25000000000000000;stroke-miterlimit:4;stroke-opacity:0.75294119000000004;stroke-dasharray:none;font-family:Ubuntu;-inkscape-font-specification:Ubuntu Bold"
         id="path3883"
         d="m 204.63279,1041.6534 c -1e-5,-1.8878 -0.69483,-2.8317 -2.08447,-2.8317 -0.30153,0 -0.60306,0.039 -0.90458,0.118 -0.28842,0.079 -0.5244,0.177 -0.70793,0.2949 l 0,5.3292 c 0.1442,0.026 0.32774,0.053 0.55061,0.079 0.22287,0.013 0.4654,0.02 0.7276,0.02 0.79969,0 1.40275,-0.2753 1.80916,-0.8259 0.4064,-0.5506 0.6096,-1.2782 0.60961,-2.1828 m 2.98905,0.079 c -1e-5,0.8259 -0.12456,1.5732 -0.37363,2.2418 -0.23599,0.6686 -0.5834,1.2389 -1.04224,1.7108 -0.45885,0.472 -1.02257,0.839 -1.69117,1.1012 -0.66861,0.2491 -1.42898,0.3737 -2.28111,0.3737 -0.35398,0 -0.72761,-0.02 -1.1209,-0.059 -0.38019,-0.026 -0.76037,-0.066 -1.14055,-0.118 -0.36708,-0.053 -0.72105,-0.1114 -1.0619,-0.177 -0.34086,-0.079 -0.64239,-0.1573 -0.90458,-0.236 l 0,-14.4536 2.93005,-0.472 0,5.1522 c 0.32774,-0.1442 0.6686,-0.2556 1.02257,-0.3343 0.35396,-0.079 0.73415,-0.118 1.14056,-0.118 0.73414,0 1.38308,0.1311 1.94681,0.3933 0.56371,0.2491 1.03567,0.6096 1.41587,1.0816 0.38017,0.4719 0.66859,1.0422 0.86525,1.7108 0.19663,0.6555 0.29496,1.3897 0.29497,2.2025"
         inkscape:connector-curvature="0" />
      <path
         style="font-size:medium;font-style:normal;font-variant:normal;font-weight:normal;font-stretch:normal;text-indent:0;text-align:start;text-decoration:none;line-height:normal;letter-spacing:normal;word-spacing:normal;text-transform:none;direction:ltr;block-progression:tb;writing-mode:lr-tb;text-anchor:start;baseline-shift:baseline;color:#000000;fill:#000000;fill-opacity:1;stroke:none;stroke-width:0.25000000000000000;stroke-miterlimit:4;stroke-opacity:0.75294119000000004;stroke-dasharray:none;marker:none;visibility:visible;display:inline;overflow:visible;enable-background:accumulate;font-family:Sans;-inkscape-font-specification:Sans"
         d="m 34.55611,1008.5428 c -0.448226,-0.063 -0.869137,0.016 -1.177839,0.1792 -0.617403,0.3257 -0.913252,0.8535 -0.913252,0.8535 l 1.399751,0.8535 c 0,0 0.137716,-0.1801 0.281657,-0.256 0.10188,-0.054 0.196375,-0.062 0.384078,0.051 l 0,10.0116 -12.666036,25.7418 a 0.81944815,0.81944815 0 0 0 0.734015,1.1778 l 30.2312,0 a 0.81944815,0.81944815 0 0 0 0.734015,-1.1778 l -12.666036,-25.7418 0,-10.0202 c 0.179941,-0.1051 0.282706,-0.096 0.384078,-0.043 0.145451,0.076 0.281657,0.256 0.281657,0.256 l 1.391216,-0.862 c 0,0 -0.296182,-0.5208 -0.913252,-0.845 -0.61707,-0.3242 -1.675282,-0.2999 -2.517844,0.4694 a 0.81944815,0.81944815 0 0 0 -0.264587,0.606 l 0,10.6262 a 0.81944815,0.81944815 0 0 0 0.08535,0.367 l 12.171003,24.7261 -27.6024,0 12.171003,-24.7261 a 0.81944815,0.81944815 0 0 0 0.08535,-0.367 l 0,-10.6262 a 0.81944815,0.81944815 0 0 0 -0.264587,-0.606 c -0.422132,-0.3854 -0.900314,-0.5859 -1.34854,-0.6486 z"
         id="path3885"
         inkscape:connector-curvature="0" />
      <path
         style="font-size:medium;font-style:normal;font-variant:normal;font-weight:normal;font-stretch:normal;text-indent:0;text-align:start;text-decoration:none;line-height:normal;letter-spacing:normal;word-spacing:normal;text-transform:none;direction:ltr;block-progression:tb;writing-mode:lr-tb;text-anchor:start;baseline-shift:baseline;color:#000000;fill:#000000;fill-opacity:1;stroke:none;stroke-width:0.25000000000000000;stroke-miterlimit:4;stroke-opacity:0.75294119000000004;stroke-dasharray:none;marker:none;visibility:visible;display:inline;overflow:visible;enable-background:accumulate;font-family:Sans;-inkscape-font-specification:Sans"
         d="m 27.617102,1040.976 a 0.68365815,0.68365815 0 1 0 0.06828,1.3656 l 6.025756,0 a 0.68287346,0.68287346 0 1 0 0,-1.3656 l -6.025756,0 a 0.68287346,0.68287346 0 0 0 -0.06828,0 z"
         id="path3887"
         inkscape:connector-curvature="0" />
      <path
         style="font-size:medium;font-style:normal;font-variant:normal;font-weight:normal;font-stretch:normal;text-indent:0;text-align:start;text-decoration:none;line-height:normal;letter-spacing:normal;word-spacing:normal;text-transform:none;direction:ltr;block-progression:tb;writing-mode:lr-tb;text-anchor:start;baseline-shift:baseline;color:#000000;fill:#000000;fill-opacity:1;stroke:none;stroke-width:0.25000000000000000;stroke-miterlimit:4;stroke-opacity:0.75294119000000004;stroke-dasharray:none;marker:none;visibility:visible;display:inline;overflow:visible;enable-background:accumulate;font-family:Sans;-inkscape-font-specification:Sans"
         d="m 33.711139,1037.9119 -4.53212,0.01 a 0.68287346,0.68287346 0 1 0 0,1.3656 l 4.53212,-0.01 a 0.68287346,0.68287346 0 1 0 0,-1.3656 z"
         id="path3889"
         inkscape:connector-curvature="0" />
      <path
         style="font-size:medium;font-style:normal;font-variant:normal;font-weight:normal;font-stretch:normal;text-indent:0;text-align:start;text-decoration:none;line-height:normal;letter-spacing:normal;word-spacing:normal;text-transform:none;direction:ltr;block-progression:tb;writing-mode:lr-tb;text-anchor:start;baseline-shift:baseline;color:#000000;fill:#000000;fill-opacity:1;stroke:none;stroke-width:0.25000000000000000;stroke-miterlimit:4;stroke-opacity:0.75294119000000004;stroke-dasharray:none;marker:none;visibility:visible;display:inline;overflow:visible;enable-background:accumulate;font-family:Sans;-inkscape-font-specification:Sans"
         d="m 30.62998,1034.8478 a 0.68365815,0.68365815 0 1 0 0.06828,1.3656 l 3.012878,0 a 0.68287346,0.68287346 0 1 0 0,-1.3656 l -3.012878,0 a 0.68287346,0.68287346 0 0 0 -0.06828,0 z"
         id="path3891"
         inkscape:connector-curvature="0" />
      <path
         style="font-size:76px;font-style:italic;font-variant:normal;font-weight:normal;font-stretch:normal;text-align:start;line-height:125%;letter-spacing:0px;word-spacing:0px;writing-mode:lr-tb;text-anchor:start;fill:#000000;fill-opacity:1;stroke:none;stroke-width:0.25000000000000000;stroke-miterlimit:4;stroke-opacity:0.75294119000000004;stroke-dasharray:none;font-family:Georgia;-inkscape-font-specification:Georgia Italic"
         id="path3893"
         d="m 212.79642,1045.5374 c -1e-5,0.3784 -0.13853,0.7027 -0.41556,0.973 -0.27027,0.2635 -0.59461,0.3953 -0.97299,0.3953 -0.37839,0 -0.7061,-0.1318 -0.98314,-0.3953 -0.27027,-0.2703 -0.40541,-0.5946 -0.40541,-0.973 0,-0.3784 0.13514,-0.7027 0.40541,-0.973 0.27704,-0.277 0.60475,-0.4156 0.98314,-0.4156 0.37838,0 0.70272,0.1386 0.97299,0.4156 0.27703,0.2703 0.41555,0.5946 0.41556,0.973"
         inkscape:connector-curvature="0" />
      <path
         style="font-size:76px;font-style:italic;font-variant:normal;font-weight:normal;font-stretch:normal;text-align:start;line-height:125%;letter-spacing:0px;word-spacing:0px;writing-mode:lr-tb;text-anchor:start;fill:#000000;fill-opacity:1;stroke:none;stroke-width:0.25000000000000000;stroke-miterlimit:4;stroke-opacity:0.75294119000000004;stroke-dasharray:none;font-family:Georgia;-inkscape-font-specification:Georgia Italic"
         id="path3895"
         d="m 224.80685,1040.4596 c -1e-5,0.7973 -0.13515,1.5946 -0.40541,2.3919 -0.27029,0.7973 -0.66219,1.4967 -1.17571,2.098 -0.52029,0.6217 -1.14868,1.1217 -1.88518,1.5001 -0.72976,0.3716 -1.57775,0.5574 -2.54398,0.5574 -1.12165,0 -2.03384,-0.3615 -2.73656,-1.0845 -0.69596,-0.723 -1.04394,-1.696 -1.04394,-2.9189 0,-0.8987 0.14865,-1.7366 0.44595,-2.5136 0.29731,-0.7771 0.69596,-1.4595 1.19598,-2.0474 0.50677,-0.5878 1.13178,-1.0608 1.87505,-1.4189 0.75001,-0.3649 1.56084,-0.5473 2.43249,-0.5473 1.20272,0 2.14194,0.3682 2.81764,1.1047 0.68244,0.7298 1.02366,1.6892 1.02367,2.8785 m -2.06762,-0.3852 c -1e-5,-0.9595 -0.17231,-1.6791 -0.5169,-2.1588 -0.33786,-0.4798 -0.82773,-0.7196 -1.46963,-0.7196 -0.56083,0 -1.09125,0.1723 -1.59126,0.5169 -0.49326,0.3446 -0.91894,0.9054 -1.27706,1.6824 -0.27704,0.5879 -0.47974,1.2433 -0.60812,1.9663 -0.12839,0.7162 -0.19258,1.3784 -0.19257,1.9866 -1e-5,0.9662 0.16554,1.6993 0.49663,2.1993 0.33784,0.4933 0.84461,0.7399 1.52031,0.7399 0.60136,0 1.13516,-0.1892 1.60139,-0.5676 0.46622,-0.3783 0.84461,-0.8581 1.13516,-1.4392 0.29054,-0.5676 0.51352,-1.2162 0.66894,-1.946 0.1554,-0.7365 0.2331,-1.4899 0.23311,-2.2602"
         inkscape:connector-curvature="0" />
      <path
         style="font-size:76px;font-style:italic;font-variant:normal;font-weight:normal;font-stretch:normal;text-align:start;line-height:125%;letter-spacing:0px;word-spacing:0px;writing-mode:lr-tb;text-anchor:start;fill:#000000;fill-opacity:1;stroke:none;stroke-width:0.25000000000000000;stroke-miterlimit:4;stroke-opacity:0.75294119000000004;stroke-dasharray:none;font-family:Georgia;-inkscape-font-specification:Georgia Italic"
         id="path3897"
         d="m 235.15509,1038.1284 c -2e-5,0.1892 -0.027,0.3987 -0.0811,0.6284 -0.0541,0.223 -0.13177,0.4088 -0.23311,0.5575 -0.12164,0.1824 -0.25677,0.3243 -0.40542,0.4256 -0.1419,0.095 -0.34799,0.1419 -0.61826,0.1419 -0.36488,0 -0.63853,-0.091 -0.82096,-0.2736 -0.18245,-0.1824 -0.27367,-0.3852 -0.27366,-0.6081 -1e-5,-0.2095 0.0507,-0.4426 0.15203,-0.6994 0.10135,-0.2635 0.20608,-0.5236 0.3142,-0.7804 -0.0811,0 -0.21623,0.024 -0.40541,0.071 -0.18245,0.041 -0.40543,0.1251 -0.66894,0.2534 -0.26353,0.1284 -0.56421,0.321 -0.90205,0.5777 -0.3311,0.2568 -0.68583,0.598 -1.06422,1.0237 l -1.63179,7.257 -1.88519,0 1.47977,-6.5678 c 0.0338,-0.1621 0.0811,-0.4054 0.1419,-0.7297 0.0676,-0.3243 0.10135,-0.5642 0.10135,-0.7196 0,-0.3784 -0.0642,-0.6318 -0.19257,-0.7602 -0.12839,-0.1284 -0.38515,-0.1926 -0.77029,-0.1926 -0.14866,0 -0.33785,0.027 -0.56759,0.081 -0.22973,0.047 -0.40879,0.088 -0.53717,0.1216 l 0.15203,-0.6486 c 0.52704,-0.2365 0.99327,-0.4122 1.39868,-0.5271 0.40542,-0.1148 0.7534,-0.1722 1.04395,-0.1723 0.54055,10e-5 0.92569,0.1487 1.15543,0.446 0.22973,0.2906 0.3446,0.7298 0.34461,1.3176 l 0.0608,0 c 0.80407,-0.696 1.41219,-1.1825 1.82437,-1.4595 0.41892,-0.277 0.85474,-0.4155 1.30747,-0.4155 0.21621,0 0.42567,0.027 0.62839,0.081 0.2027,0.054 0.375,0.1453 0.5169,0.2737 0.14865,0.1419 0.25676,0.3074 0.32434,0.4966 0.0743,0.1825 0.11147,0.4494 0.11149,0.8007"
         inkscape:connector-curvature="0" />
      <path
         style="font-size:76px;font-style:italic;font-variant:normal;font-weight:normal;font-stretch:normal;text-align:start;line-height:125%;letter-spacing:0px;word-spacing:0px;writing-mode:lr-tb;text-anchor:start;fill:#000000;fill-opacity:1;stroke:none;stroke-width:0.25000000000000000;stroke-miterlimit:4;stroke-opacity:0.75294119000000004;stroke-dasharray:none;font-family:Georgia;-inkscape-font-specification:Georgia Italic"
         id="path3899"
         d="m 242.23972,1045.3347 -0.0709,-0.02 c -0.13515,0.1081 -0.32772,0.2601 -0.57772,0.4561 -0.24326,0.1959 -0.50002,0.3682 -0.77029,0.5169 -0.31083,0.1824 -0.62502,0.3311 -0.94259,0.4459 -0.31758,0.1149 -0.66894,0.1723 -1.05408,0.1723 -0.97976,0 -1.73654,-0.3446 -2.27033,-1.0338 -0.52704,-0.6959 -0.79056,-1.6521 -0.79056,-2.8683 0,-0.8379 0.15203,-1.6521 0.45609,-2.4426 0.31082,-0.7906 0.73313,-1.4933 1.26693,-2.1082 0.51352,-0.5946 1.1284,-1.071 1.84464,-1.4291 0.71622,-0.3648 1.46624,-0.5473 2.25005,-0.5473 0.48649,0 0.94596,0.064 1.37842,0.1926 0.43243,0.1216 0.78041,0.2669 1.04394,0.4358 l 1.85478,-0.4764 0.12162,0.1521 -1.70274,7.9867 c -0.25678,1.2095 -0.58787,2.2298 -0.99327,3.0609 -0.39867,0.8378 -0.86152,1.5 -1.38855,1.9865 -0.54056,0.5 -1.13855,0.8547 -1.79397,1.0642 -0.64866,0.2162 -1.38517,0.3243 -2.20951,0.3243 -0.56083,0 -1.0203,-0.044 -1.37841,-0.1317 -0.35136,-0.088 -0.6284,-0.2028 -0.8311,-0.3446 -0.20271,-0.1419 -0.34123,-0.3041 -0.41556,-0.4865 -0.0676,-0.1757 -0.10135,-0.3446 -0.10135,-0.5068 0,-0.3041 0.0912,-0.5608 0.27366,-0.7703 0.18243,-0.2027 0.43244,-0.3041 0.75002,-0.3041 0.25,0 0.46284,0.071 0.63853,0.2129 0.17567,0.1487 0.31757,0.3074 0.42568,0.4764 0.11487,0.1756 0.22636,0.3851 0.33447,0.6283 0.10811,0.2433 0.18919,0.4257 0.24325,0.5474 l 0.30406,0 c 0.37163,0 0.77028,-0.085 1.19598,-0.2534 0.42568,-0.169 0.8142,-0.4426 1.16557,-0.821 0.35811,-0.3919 0.69258,-0.9189 1.0034,-1.5811 0.31081,-0.6554 0.55744,-1.5 0.73988,-2.5339 m 1.35814,-6.4765 c 0,-0.1892 -0.0304,-0.3817 -0.0912,-0.5777 -0.0541,-0.2027 -0.15879,-0.3885 -0.31419,-0.5574 -0.14866,-0.1622 -0.33785,-0.2906 -0.56758,-0.3852 -0.22974,-0.095 -0.52367,-0.1419 -0.88178,-0.1419 -0.52029,0 -1.01354,0.1588 -1.47977,0.4764 -0.45947,0.3108 -0.87503,0.7399 -1.24665,1.2872 -0.34461,0.5135 -0.62502,1.1352 -0.84124,1.8649 -0.21622,0.7297 -0.32433,1.4629 -0.32433,2.1994 0,0.3986 0.027,0.7669 0.0811,1.1047 0.0608,0.3311 0.16217,0.6217 0.30406,0.8717 0.1419,0.25 0.32771,0.4459 0.55745,0.5878 0.23649,0.1352 0.54055,0.2027 0.91219,0.2027 0.47297,0 0.94258,-0.1351 1.40881,-0.4054 0.46623,-0.277 0.9088,-0.6284 1.32774,-1.0541 l 1.15543,-5.4731"
         inkscape:connector-curvature="0" />
    </g>
    <g
       id="g3849"
       style="stroke:none">
      <path
         d="m 21.666857,1021.015 -1.783538,0.6085 c -0.489616,-1.4968 -1.300951,-2.6298 -2.434005,-3.3992 -1.119097,-0.7694 -2.343093,-1.1541 -3.67199,-1.1541 -1.608693,0 -2.923614,0.5176 -3.9447678,1.5527 -1.0071821,1.0352 -1.5107687,2.3012 -1.5107619,3.7979 -6.8e-6,0.7694 0.1748495,1.4689 0.52457,2.0983 0.3497058,0.6295 0.8183213,1.1681 1.4058477,1.6157 0.587509,0.4476 1.258958,0.8673 2.01435,1.259 0.769357,0.3777 1.573697,0.7414 2.413022,1.0911 0.853287,0.3497 1.699592,0.7204 2.538919,1.1121 0.853284,0.3777 1.657624,0.8183 2.413023,1.3219 0.76935,0.5036 1.447794,1.0631 2.035331,1.6786 0.587499,0.6155 1.056114,1.3709 1.405849,2.2661 0.349692,0.8953 0.524548,1.8885 0.524569,2.9796 -2.1e-5,1.8185 -0.468636,3.4482 -1.405846,4.889 -0.937254,1.4408 -2.154254,2.5389 -3.651009,3.2943 -1.496789,0.7554 -3.112463,1.1331 -4.847028,1.1331 -1.133082,0 -2.217193,-0.1819 -3.252335,-0.5456 -1.0351593,-0.3637 -2.0003672,-0.9023 -2.8956264,-1.6157 -0.8952717,-0.7274 -1.6576461,-1.6926 -2.2871258,-2.8956 -0.6294874,-1.203 -1.0421486,-2.5809 -1.2379853,-4.1336 l 1.8674694,-0.2308 c 0.3497088,2.5179 1.2449739,4.3994 2.6857991,5.6443 1.454799,1.2311 3.161399,1.8465 5.119804,1.8465 1.384852,0 2.67879,-0.2867 3.881819,-0.8603 1.202997,-0.5875 2.189188,-1.4547 2.958575,-2.6018 0.783338,-1.1611 1.175017,-2.49 1.175039,-3.9868 -2.2e-5,-0.9372 -0.174878,-1.7835 -0.524572,-2.5389 -0.349732,-0.7553 -0.818348,-1.3918 -1.405847,-1.9094 -0.587537,-0.5176 -1.26598,-0.9932 -2.035333,-1.4268 -0.755396,-0.4337 -1.559736,-0.8253 -2.413022,-1.1751 -0.839325,-0.3637 -1.685631,-0.7274 -2.538919,-1.0911 -0.839323,-0.3637 -1.643663,-0.7693 -2.413023,-1.217 -0.7553889,-0.4476 -1.4268382,-0.9372 -2.0143492,-1.4688 -0.5875249,-0.5315 -1.0561404,-1.182 -1.4058478,-1.9514 -0.3497186,-0.7833 -0.5245752,-1.6576 -0.5245703,-2.6228 -4.9e-6,-2.0144 0.6854327,-3.7279 2.0563151,-5.1408 1.3708679,-1.4268 3.1334222,-2.1402 5.2876672,-2.1403 1.67861,10e-5 3.252319,0.5246 4.721131,1.5737 1.482766,1.0352 2.538899,2.483 3.168402,4.3435"
         id="path3762"
         inkscape:connector-curvature="0"
         style="font-size:157.33911133000000859px;font-style:normal;font-variant:normal;font-weight:normal;font-stretch:normal;text-align:start;line-height:125%;letter-spacing:0px;word-spacing:0px;writing-mode:lr-tb;text-anchor:start;fill:#ffffff;fill-opacity:1;stroke:none;stroke-width:0.25000000000000000;stroke-miterlimit:4;stroke-opacity:0.75294119000000004;stroke-dasharray:none;font-family:Sawasdee;-inkscape-font-specification:Sawasdee" />
      <path
         d="m 56.47733,1046.8028 -1.846486,0 6.001082,-31.705 11.435629,27.1938 11.624475,-27.1938 5.833218,31.705 -1.972384,0 -4.595235,-25.1793 -11.015972,25.5361 -10.680247,-25.5361 -4.78408,25.1793"
         id="path3766"
         inkscape:connector-curvature="0"
         style="font-size:157.33911133000000859px;font-style:normal;font-variant:normal;font-weight:normal;font-stretch:normal;text-align:start;line-height:125%;letter-spacing:0px;word-spacing:0px;writing-mode:lr-tb;text-anchor:start;fill:#ffffff;fill-opacity:1;stroke:none;stroke-width:0.25000000000000000;stroke-miterlimit:4;stroke-opacity:0.75294119000000004;stroke-dasharray:none;font-family:Sawasdee;-inkscape-font-specification:Sawasdee" />
      <path
         d="m 93.742791,1046.8028 0,-31.3692 11.120889,0 c 2.25214,0 4.16157,0.8113 5.7283,2.434 1.5667,1.6227 2.35005,3.5741 2.35008,5.8542 -3e-5,2.3081 -0.78338,4.2805 -2.35008,5.9171 -1.55274,1.6367 -3.44119,2.455 -5.66535,2.455 l -9.295386,0 0,14.7089 -1.888453,0 m 1.888453,-16.6813 9.295386,0 c 1.66462,0 3.09145,-0.6224 4.28049,-1.8674 1.20299,-1.245 1.8045,-2.7558 1.80452,-4.5323 -2e-5,-1.7765 -0.60153,-3.2873 -1.80452,-4.5323 -1.20303,-1.259 -2.65085,-1.8884 -4.34344,-1.8885 l -9.232436,0 0,12.8205"
         id="path3768"
         inkscape:connector-curvature="0"
         style="font-size:157.33911133000000859px;font-style:normal;font-variant:normal;font-weight:normal;font-stretch:normal;text-align:start;line-height:125%;letter-spacing:0px;word-spacing:0px;writing-mode:lr-tb;text-anchor:start;fill:#ffffff;fill-opacity:1;stroke:none;stroke-width:0.25000000000000000;stroke-miterlimit:4;stroke-opacity:0.75294119000000004;stroke-dasharray:none;font-family:Sawasdee;-inkscape-font-specification:Sawasdee" />
      <path
         d="m 137.21916,1046.8028 -18.21307,0 0,-31.3273 1.88845,0 0,29.4389 16.32462,0 0,1.8884"
         id="path3770"
         inkscape:connector-curvature="0"
         style="font-size:157.33911133000000859px;font-style:normal;font-variant:normal;font-weight:normal;font-stretch:normal;text-align:start;line-height:125%;letter-spacing:0px;word-spacing:0px;writing-mode:lr-tb;text-anchor:start;fill:#ffffff;fill-opacity:1;stroke:none;stroke-width:0.25000000000000000;stroke-miterlimit:4;stroke-opacity:0.75294119000000004;stroke-dasharray:none;font-family:Sawasdee;-inkscape-font-specification:Sawasdee" />
      <path
         d="m 158.91539,1027.6665 0,1.8885 -15.02369,0 0,15.3594 16.24069,0 0,1.8884 -18.12914,0 0,-31.3273 18.21307,0 0,1.8885 -16.32462,0 0,10.3025 15.02369,0"
         id="path3772"
         inkscape:connector-curvature="0"
         style="font-size:157.33911133000000859px;font-style:normal;font-variant:normal;font-weight:normal;font-stretch:normal;text-align:start;line-height:125%;letter-spacing:0px;word-spacing:0px;writing-mode:lr-tb;text-anchor:start;fill:#ffffff;fill-opacity:1;stroke:none;stroke-width:0.25000000000000000;stroke-miterlimit:4;stroke-opacity:0.75294119000000004;stroke-dasharray:none;font-family:Sawasdee;-inkscape-font-specification:Sawasdee" />
      <path
         d="m 181.72369,1021.015 -1.78354,0.6085 c -0.48961,-1.4968 -1.30095,-2.6298 -2.434,-3.3992 -1.1191,-0.7694 -2.34309,-1.1541 -3.67199,-1.1541 -1.60869,0 -2.92362,0.5176 -3.94477,1.5527 -1.00718,1.0352 -1.51077,2.3012 -1.51076,3.7979 -10e-6,0.7694 0.17485,1.4689 0.52457,2.0983 0.3497,0.6295 0.81832,1.1681 1.40585,1.6157 0.58751,0.4476 1.25895,0.8673 2.01435,1.259 0.76935,0.3777 1.57369,0.7414 2.41302,1.0911 0.85328,0.3497 1.69959,0.7204 2.53892,1.1121 0.85328,0.3777 1.65762,0.8183 2.41302,1.3219 0.76935,0.5036 1.44779,1.0631 2.03533,1.6786 0.5875,0.6155 1.05611,1.3709 1.40585,2.2661 0.34969,0.8953 0.52455,1.8885 0.52457,2.9796 -2e-5,1.8185 -0.46864,3.4482 -1.40585,4.889 -0.93725,1.4408 -2.15425,2.5389 -3.65101,3.2943 -1.49678,0.7554 -3.11246,1.1331 -4.84702,1.1331 -1.13309,0 -2.2172,-0.1819 -3.25234,-0.5456 -1.03516,-0.3637 -2.00037,-0.9023 -2.89563,-1.6157 -0.89527,-0.7274 -1.65764,-1.6926 -2.28712,-2.8956 -0.62949,-1.203 -1.04215,-2.5809 -1.23799,-4.1336 l 1.86747,-0.2308 c 0.34971,2.5179 1.24498,4.3994 2.6858,5.6443 1.4548,1.2311 3.1614,1.8465 5.11981,1.8465 1.38485,0 2.67879,-0.2867 3.88182,-0.8603 1.20299,-0.5875 2.18918,-1.4547 2.95857,-2.6018 0.78334,-1.1611 1.17502,-2.49 1.17504,-3.9868 -2e-5,-0.9372 -0.17488,-1.7835 -0.52457,-2.5389 -0.34974,-0.7553 -0.81835,-1.3918 -1.40585,-1.9094 -0.58754,-0.5176 -1.26598,-0.9932 -2.03533,-1.4268 -0.7554,-0.4337 -1.55974,-0.8253 -2.41303,-1.1751 -0.83932,-0.3637 -1.68563,-0.7274 -2.53891,-1.0911 -0.83933,-0.3637 -1.64367,-0.7693 -2.41303,-1.217 -0.75539,-0.4476 -1.42684,-0.9372 -2.01435,-1.4688 -0.58752,-0.5315 -1.05614,-1.182 -1.40584,-1.9514 -0.34972,-0.7833 -0.52458,-1.6576 -0.52457,-2.6228 -1e-5,-2.0144 0.68543,-3.7279 2.05631,-5.1408 1.37087,-1.4268 3.13342,-2.1402 5.28767,-2.1403 1.67861,10e-5 3.25232,0.5246 4.72113,1.5737 1.48276,1.0352 2.5389,2.483 3.1684,4.3435"
         id="path3774"
         inkscape:connector-curvature="0"
         style="font-size:157.33911133000000859px;font-style:normal;font-variant:normal;font-weight:normal;font-stretch:normal;text-align:start;line-height:125%;letter-spacing:0px;word-spacing:0px;writing-mode:lr-tb;text-anchor:start;fill:#ffffff;fill-opacity:1;stroke:none;stroke-width:0.25000000000000000;stroke-miterlimit:4;stroke-opacity:0.75294119000000004;stroke-dasharray:none;font-family:Sawasdee;-inkscape-font-specification:Sawasdee" />
      <path
         inkscape:connector-curvature="0"
         d="m 188.63518,1041.6534 c -1e-5,0.9046 0.2032,1.6322 0.6096,2.1828 0.4064,0.5506 1.00946,0.8259 1.80916,0.8259 0.2622,0 0.50473,-0.01 0.7276,-0.02 0.22286,-0.026 0.4064,-0.053 0.55062,-0.079 l 0,-5.3292 c -0.18355,-0.1179 -0.42608,-0.2163 -0.7276,-0.2949 -0.28842,-0.079 -0.5834,-0.118 -0.88492,-0.118 -1.38964,0 -2.08447,0.9439 -2.08446,2.8317 m 6.62703,4.9162 c -0.26221,0.079 -0.56373,0.1573 -0.90458,0.236 -0.34087,0.066 -0.70139,0.1245 -1.08156,0.177 -0.36709,0.052 -0.74727,0.092 -1.14056,0.118 -0.38019,0.039 -0.74727,0.059 -1.10123,0.059 -0.85215,0 -1.61252,-0.1246 -2.28112,-0.3737 -0.6686,-0.249 -1.23233,-0.603 -1.69117,-1.0619 -0.45884,-0.4719 -0.81281,-1.0356 -1.0619,-1.6911 -0.23597,-0.6686 -0.35396,-1.4159 -0.35396,-2.2418 0,-0.8391 0.10488,-1.5929 0.31463,-2.2615 0.20976,-0.6817 0.51129,-1.2585 0.90458,-1.7305 0.3933,-0.4719 0.87181,-0.8324 1.43553,-1.0815 0.57684,-0.2491 1.23233,-0.3737 1.96648,-0.3737 0.4064,0 0.76692,0.039 1.08157,0.118 0.32774,0.079 0.65548,0.1901 0.98324,0.3343 l 0,-4.6802 2.93005,-0.472 0,14.9256"
         id="path3781"
         style="font-size:72px;font-style:normal;font-variant:normal;font-weight:bold;font-stretch:normal;text-align:start;line-height:125%;letter-spacing:0px;word-spacing:0px;writing-mode:lr-tb;text-anchor:start;fill:#ffffff;fill-opacity:1;stroke:none;stroke-width:0.25000000000000000;stroke-miterlimit:4;stroke-opacity:0.75294119000000004;stroke-dasharray:none;font-family:Ubuntu;-inkscape-font-specification:Ubuntu Bold" />
      <path
         inkscape:connector-curvature="0"
         d="m 204.63279,1041.6534 c -1e-5,-1.8878 -0.69483,-2.8317 -2.08447,-2.8317 -0.30153,0 -0.60306,0.039 -0.90458,0.118 -0.28842,0.079 -0.5244,0.177 -0.70793,0.2949 l 0,5.3292 c 0.1442,0.026 0.32774,0.053 0.55061,0.079 0.22287,0.013 0.4654,0.02 0.7276,0.02 0.79969,0 1.40275,-0.2753 1.80916,-0.8259 0.4064,-0.5506 0.6096,-1.2782 0.60961,-2.1828 m 2.98905,0.079 c -1e-5,0.8259 -0.12456,1.5732 -0.37363,2.2418 -0.23599,0.6686 -0.5834,1.2389 -1.04224,1.7108 -0.45885,0.472 -1.02257,0.839 -1.69117,1.1012 -0.66861,0.2491 -1.42898,0.3737 -2.28111,0.3737 -0.35398,0 -0.72761,-0.02 -1.1209,-0.059 -0.38019,-0.026 -0.76037,-0.066 -1.14055,-0.118 -0.36708,-0.053 -0.72105,-0.1114 -1.0619,-0.177 -0.34086,-0.079 -0.64239,-0.1573 -0.90458,-0.236 l 0,-14.4536 2.93005,-0.472 0,5.1522 c 0.32774,-0.1442 0.6686,-0.2556 1.02257,-0.3343 0.35396,-0.079 0.73415,-0.118 1.14056,-0.118 0.73414,0 1.38308,0.1311 1.94681,0.3933 0.56371,0.2491 1.03567,0.6096 1.41587,1.0816 0.38017,0.4719 0.66859,1.0422 0.86525,1.7108 0.19663,0.6555 0.29496,1.3897 0.29497,2.2025"
         id="path3783"
         style="font-size:72px;font-style:normal;font-variant:normal;font-weight:bold;font-stretch:normal;text-align:start;line-height:125%;letter-spacing:0px;word-spacing:0px;writing-mode:lr-tb;text-anchor:start;fill:#ffffff;fill-opacity:1;stroke:none;stroke-width:0.25000000000000000;stroke-miterlimit:4;stroke-opacity:0.75294119000000004;stroke-dasharray:none;font-family:Ubuntu;-inkscape-font-specification:Ubuntu Bold" />
      <path
         inkscape:connector-curvature="0"
         id="path3773"
         d="m 34.55611,1008.5428 c -0.448226,-0.063 -0.869137,0.016 -1.177839,0.1792 -0.617403,0.3257 -0.913252,0.8535 -0.913252,0.8535 l 1.399751,0.8535 c 0,0 0.137716,-0.1801 0.281657,-0.256 0.10188,-0.054 0.196375,-0.062 0.384078,0.051 l 0,10.0116 -12.666036,25.7418 a 0.81944815,0.81944815 0 0 0 0.734015,1.1778 l 30.2312,0 a 0.81944815,0.81944815 0 0 0 0.734015,-1.1778 l -12.666036,-25.7418 0,-10.0202 c 0.179941,-0.1051 0.282706,-0.096 0.384078,-0.043 0.145451,0.076 0.281657,0.256 0.281657,0.256 l 1.391216,-0.862 c 0,0 -0.296182,-0.5208 -0.913252,-0.845 -0.61707,-0.3242 -1.675282,-0.2999 -2.517844,0.4694 a 0.81944815,0.81944815 0 0 0 -0.264587,0.606 l 0,10.6262 a 0.81944815,0.81944815 0 0 0 0.08535,0.367 l 12.171003,24.7261 -27.6024,0 12.171003,-24.7261 a 0.81944815,0.81944815 0 0 0 0.08535,-0.367 l 0,-10.6262 a 0.81944815,0.81944815 0 0 0 -0.264587,-0.606 c -0.422132,-0.3854 -0.900314,-0.5859 -1.34854,-0.6486 z"
         style="font-size:medium;font-style:normal;font-variant:normal;font-weight:normal;font-stretch:normal;text-indent:0;text-align:start;text-decoration:none;line-height:normal;letter-spacing:normal;word-spacing:normal;text-transform:none;direction:ltr;block-progression:tb;writing-mode:lr-tb;text-anchor:start;baseline-shift:baseline;color:#000000;fill:#ffffff;fill-opacity:1;stroke:none;stroke-width:0.25000000000000000;stroke-miterlimit:4;stroke-opacity:0.75294119000000004;stroke-dasharray:none;marker:none;visibility:visible;display:inline;overflow:visible;enable-background:accumulate;font-family:Sans;-inkscape-font-specification:Sans" />
      <path
         inkscape:connector-curvature="0"
         id="path3785"
         d="m 27.617102,1040.976 a 0.68365815,0.68365815 0 1 0 0.06828,1.3656 l 6.025756,0 a 0.68287346,0.68287346 0 1 0 0,-1.3656 l -6.025756,0 a 0.68287346,0.68287346 0 0 0 -0.06828,0 z"
         style="font-size:medium;font-style:normal;font-variant:normal;font-weight:normal;font-stretch:normal;text-indent:0;text-align:start;text-decoration:none;line-height:normal;letter-spacing:normal;word-spacing:normal;text-transform:none;direction:ltr;block-progression:tb;writing-mode:lr-tb;text-anchor:start;baseline-shift:baseline;color:#000000;fill:#ffffff;fill-opacity:1;stroke:none;stroke-width:0.25000000000000000;stroke-miterlimit:4;stroke-opacity:0.75294119000000004;stroke-dasharray:none;marker:none;visibility:visible;display:inline;overflow:visible;enable-background:accumulate;font-family:Sans;-inkscape-font-specification:Sans" />
      <path
         inkscape:connector-curvature="0"
         id="path3787"
         d="m 33.711139,1037.9119 -4.53212,0.01 a 0.68287346,0.68287346 0 1 0 0,1.3656 l 4.53212,-0.01 a 0.68287346,0.68287346 0 1 0 0,-1.3656 z"
         style="font-size:medium;font-style:normal;font-variant:normal;font-weight:normal;font-stretch:normal;text-indent:0;text-align:start;text-decoration:none;line-height:normal;letter-spacing:normal;word-spacing:normal;text-transform:none;direction:ltr;block-progression:tb;writing-mode:lr-tb;text-anchor:start;baseline-shift:baseline;color:#000000;fill:#ffffff;fill-opacity:1;stroke:none;stroke-width:0.25000000000000000;stroke-miterlimit:4;stroke-opacity:0.75294119000000004;stroke-dasharray:none;marker:none;visibility:visible;display:inline;overflow:visible;enable-background:accumulate;font-family:Sans;-inkscape-font-specification:Sans" />
      <path
         inkscape:connector-curvature="0"
         id="path3789"
         d="m 30.62998,1034.8478 a 0.68365815,0.68365815 0 1 0 0.06828,1.3656 l 3.012878,0 a 0.68287346,0.68287346 0 1 0 0,-1.3656 l -3.012878,0 a 0.68287346,0.68287346 0 0 0 -0.06828,0 z"
         style="font-size:medium;font-style:normal;font-variant:normal;font-weight:normal;font-stretch:normal;text-indent:0;text-align:start;text-decoration:none;line-height:normal;letter-spacing:normal;word-spacing:normal;text-transform:none;direction:ltr;block-progression:tb;writing-mode:lr-tb;text-anchor:start;baseline-shift:baseline;color:#000000;fill:#ffffff;fill-opacity:1;stroke:none;stroke-width:0.25000000000000000;stroke-miterlimit:4;stroke-opacity:0.75294119000000004;stroke-dasharray:none;marker:none;visibility:visible;display:inline;overflow:visible;enable-background:accumulate;font-family:Sans;-inkscape-font-specification:Sans" />
      <path
         inkscape:connector-curvature="0"
         d="m 212.79642,1045.5374 c -1e-5,0.3784 -0.13853,0.7027 -0.41556,0.973 -0.27027,0.2635 -0.59461,0.3953 -0.97299,0.3953 -0.37839,0 -0.7061,-0.1318 -0.98314,-0.3953 -0.27027,-0.2703 -0.40541,-0.5946 -0.40541,-0.973 0,-0.3784 0.13514,-0.7027 0.40541,-0.973 0.27704,-0.277 0.60475,-0.4156 0.98314,-0.4156 0.37838,0 0.70272,0.1386 0.97299,0.4156 0.27703,0.2703 0.41555,0.5946 0.41556,0.973"
         id="path3836"
         style="font-size:76px;font-style:italic;font-variant:normal;font-weight:normal;font-stretch:normal;text-align:start;line-height:125%;letter-spacing:0px;word-spacing:0px;writing-mode:lr-tb;text-anchor:start;fill:#ffffff;fill-opacity:1;stroke:none;stroke-width:0.25000000000000000;stroke-miterlimit:4;stroke-opacity:0.75294119000000004;stroke-dasharray:none;font-family:Georgia;-inkscape-font-specification:Georgia Italic" />
      <path
         inkscape:connector-curvature="0"
         d="m 224.80685,1040.4596 c -1e-5,0.7973 -0.13515,1.5946 -0.40541,2.3919 -0.27029,0.7973 -0.66219,1.4967 -1.17571,2.098 -0.52029,0.6217 -1.14868,1.1217 -1.88518,1.5001 -0.72976,0.3716 -1.57775,0.5574 -2.54398,0.5574 -1.12165,0 -2.03384,-0.3615 -2.73656,-1.0845 -0.69596,-0.723 -1.04394,-1.696 -1.04394,-2.9189 0,-0.8987 0.14865,-1.7366 0.44595,-2.5136 0.29731,-0.7771 0.69596,-1.4595 1.19598,-2.0474 0.50677,-0.5878 1.13178,-1.0608 1.87505,-1.4189 0.75001,-0.3649 1.56084,-0.5473 2.43249,-0.5473 1.20272,0 2.14194,0.3682 2.81764,1.1047 0.68244,0.7298 1.02366,1.6892 1.02367,2.8785 m -2.06762,-0.3852 c -1e-5,-0.9595 -0.17231,-1.6791 -0.5169,-2.1588 -0.33786,-0.4798 -0.82773,-0.7196 -1.46963,-0.7196 -0.56083,0 -1.09125,0.1723 -1.59126,0.5169 -0.49326,0.3446 -0.91894,0.9054 -1.27706,1.6824 -0.27704,0.5879 -0.47974,1.2433 -0.60812,1.9663 -0.12839,0.7162 -0.19258,1.3784 -0.19257,1.9866 -1e-5,0.9662 0.16554,1.6993 0.49663,2.1993 0.33784,0.4933 0.84461,0.7399 1.52031,0.7399 0.60136,0 1.13516,-0.1892 1.60139,-0.5676 0.46622,-0.3783 0.84461,-0.8581 1.13516,-1.4392 0.29054,-0.5676 0.51352,-1.2162 0.66894,-1.946 0.1554,-0.7365 0.2331,-1.4899 0.23311,-2.2602"
         id="path3838"
         style="font-size:76px;font-style:italic;font-variant:normal;font-weight:normal;font-stretch:normal;text-align:start;line-height:125%;letter-spacing:0px;word-spacing:0px;writing-mode:lr-tb;text-anchor:start;fill:#ffffff;fill-opacity:1;stroke:none;stroke-width:0.25000000000000000;stroke-miterlimit:4;stroke-opacity:0.75294119000000004;stroke-dasharray:none;font-family:Georgia;-inkscape-font-specification:Georgia Italic" />
      <path
         inkscape:connector-curvature="0"
         d="m 235.15509,1038.1284 c -2e-5,0.1892 -0.027,0.3987 -0.0811,0.6284 -0.0541,0.223 -0.13177,0.4088 -0.23311,0.5575 -0.12164,0.1824 -0.25677,0.3243 -0.40542,0.4256 -0.1419,0.095 -0.34799,0.1419 -0.61826,0.1419 -0.36488,0 -0.63853,-0.091 -0.82096,-0.2736 -0.18245,-0.1824 -0.27367,-0.3852 -0.27366,-0.6081 -1e-5,-0.2095 0.0507,-0.4426 0.15203,-0.6994 0.10135,-0.2635 0.20608,-0.5236 0.3142,-0.7804 -0.0811,0 -0.21623,0.024 -0.40541,0.071 -0.18245,0.041 -0.40543,0.1251 -0.66894,0.2534 -0.26353,0.1284 -0.56421,0.321 -0.90205,0.5777 -0.3311,0.2568 -0.68583,0.598 -1.06422,1.0237 l -1.63179,7.257 -1.88519,0 1.47977,-6.5678 c 0.0338,-0.1621 0.0811,-0.4054 0.1419,-0.7297 0.0676,-0.3243 0.10135,-0.5642 0.10135,-0.7196 0,-0.3784 -0.0642,-0.6318 -0.19257,-0.7602 -0.12839,-0.1284 -0.38515,-0.1926 -0.77029,-0.1926 -0.14866,0 -0.33785,0.027 -0.56759,0.081 -0.22973,0.047 -0.40879,0.088 -0.53717,0.1216 l 0.15203,-0.6486 c 0.52704,-0.2365 0.99327,-0.4122 1.39868,-0.5271 0.40542,-0.1148 0.7534,-0.1722 1.04395,-0.1723 0.54055,10e-5 0.92569,0.1487 1.15543,0.446 0.22973,0.2906 0.3446,0.7298 0.34461,1.3176 l 0.0608,0 c 0.80407,-0.696 1.41219,-1.1825 1.82437,-1.4595 0.41892,-0.277 0.85474,-0.4155 1.30747,-0.4155 0.21621,0 0.42567,0.027 0.62839,0.081 0.2027,0.054 0.375,0.1453 0.5169,0.2737 0.14865,0.1419 0.25676,0.3074 0.32434,0.4966 0.0743,0.1825 0.11147,0.4494 0.11149,0.8007"
         id="path3840"
         style="font-size:76px;font-style:italic;font-variant:normal;font-weight:normal;font-stretch:normal;text-align:start;line-height:125%;letter-spacing:0px;word-spacing:0px;writing-mode:lr-tb;text-anchor:start;fill:#ffffff;fill-opacity:1;stroke:none;stroke-width:0.25000000000000000;stroke-miterlimit:4;stroke-opacity:0.75294119000000004;stroke-dasharray:none;font-family:Georgia;-inkscape-font-specification:Georgia Italic" />
      <path
         inkscape:connector-curvature="0"
         d="m 242.23972,1045.3347 -0.0709,-0.02 c -0.13515,0.1081 -0.32772,0.2601 -0.57772,0.4561 -0.24326,0.1959 -0.50002,0.3682 -0.77029,0.5169 -0.31083,0.1824 -0.62502,0.3311 -0.94259,0.4459 -0.31758,0.1149 -0.66894,0.1723 -1.05408,0.1723 -0.97976,0 -1.73654,-0.3446 -2.27033,-1.0338 -0.52704,-0.6959 -0.79056,-1.6521 -0.79056,-2.8683 0,-0.8379 0.15203,-1.6521 0.45609,-2.4426 0.31082,-0.7906 0.73313,-1.4933 1.26693,-2.1082 0.51352,-0.5946 1.1284,-1.071 1.84464,-1.4291 0.71622,-0.3648 1.46624,-0.5473 2.25005,-0.5473 0.48649,0 0.94596,0.064 1.37842,0.1926 0.43243,0.1216 0.78041,0.2669 1.04394,0.4358 l 1.85478,-0.4764 0.12162,0.1521 -1.70274,7.9867 c -0.25678,1.2095 -0.58787,2.2298 -0.99327,3.0609 -0.39867,0.8378 -0.86152,1.5 -1.38855,1.9865 -0.54056,0.5 -1.13855,0.8547 -1.79397,1.0642 -0.64866,0.2162 -1.38517,0.3243 -2.20951,0.3243 -0.56083,0 -1.0203,-0.044 -1.37841,-0.1317 -0.35136,-0.088 -0.6284,-0.2028 -0.8311,-0.3446 -0.20271,-0.1419 -0.34123,-0.3041 -0.41556,-0.4865 -0.0676,-0.1757 -0.10135,-0.3446 -0.10135,-0.5068 0,-0.3041 0.0912,-0.5608 0.27366,-0.7703 0.18243,-0.2027 0.43244,-0.3041 0.75002,-0.3041 0.25,0 0.46284,0.071 0.63853,0.2129 0.17567,0.1487 0.31757,0.3074 0.42568,0.4764 0.11487,0.1756 0.22636,0.3851 0.33447,0.6283 0.10811,0.2433 0.18919,0.4257 0.24325,0.5474 l 0.30406,0 c 0.37163,0 0.77028,-0.085 1.19598,-0.2534 0.42568,-0.169 0.8142,-0.4426 1.16557,-0.821 0.35811,-0.3919 0.69258,-0.9189 1.0034,-1.5811 0.31081,-0.6554 0.55744,-1.5 0.73988,-2.5339 m 1.35814,-6.4765 c 0,-0.1892 -0.0304,-0.3817 -0.0912,-0.5777 -0.0541,-0.2027 -0.15879,-0.3885 -0.31419,-0.5574 -0.14866,-0.1622 -0.33785,-0.2906 -0.56758,-0.3852 -0.22974,-0.095 -0.52367,-0.1419 -0.88178,-0.1419 -0.52029,0 -1.01354,0.1588 -1.47977,0.4764 -0.45947,0.3108 -0.87503,0.7399 -1.24665,1.2872 -0.34461,0.5135 -0.62502,1.1352 -0.84124,1.8649 -0.21622,0.7297 -0.32433,1.4629 -0.32433,2.1994 0,0.3986 0.027,0.7669 0.0811,1.1047 0.0608,0.3311 0.16217,0.6217 0.30406,0.8717 0.1419,0.25 0.32771,0.4459 0.55745,0.5878 0.23649,0.1352 0.54055,0.2027 0.91219,0.2027 0.47297,0 0.94258,-0.1351 1.40881,-0.4054 0.46623,-0.277 0.9088,-0.6284 1.32774,-1.0541 l 1.15543,-5.4731"
         id="path3842"
         style="font-size:76px;font-style:italic;font-variant:normal;font-weight:normal;font-stretch:normal;text-align:start;line-height:125%;letter-spacing:0px;word-spacing:0px;writing-mode:lr-tb;text-anchor:start;fill:#ffffff;fill-opacity:1;stroke:none;stroke-width:0.25000000000000000;stroke-miterlimit:4;stroke-opacity:0.75294119000000004;stroke-dasharray:none;font-family:Georgia;-inkscape-font-specification:Georgia Italic" />
    </g>
  </g>
</svg>
