<?xml version="1.0" encoding="UTF-8" standalone="no"?>
<!-- Created with Inkscape (http://www.inkscape.org/) -->
<svg id="svg2" xmlns:rdf="http://www.w3.org/1999/02/22-rdf-syntax-ns#" xmlns="http://www.w3.org/2000/svg" height="276.69" width="206.43" version="1.1" xmlns:cc="http://creativecommons.org/ns#" xmlns:dc="http://purl.org/dc/elements/1.1/">
 <defs id="defs4"></defs>
 <metadata id="metadata7">
  <rdf:RDF>
   <cc:Work rdf:about="">
    <dc:format>image/svg+xml</dc:format>
    <dc:type rdf:resource="http://purl.org/dc/dcmitype/StillImage"/>
    <dc:title/>
   </cc:Work>
  </rdf:RDF>
 </metadata>
 <g id="layer1" fill="#CCC" transform="translate(-0.802584,-4.798999)">
  <g id="g3977" transform="translate(4.0484384,33.208776)">
   <path id="path3773" d="m88.408,69.288c-1.6411-0.22974-3.1822,0.0599-4.3125,0.65625-2.2605,1.1927-3.3438,3.125-3.3438,3.125l5.125,3.125s0.50423-0.65944,1.0312-0.9375c0.37302-0.19681,0.719-0.22746,1.4062,0.1875v36.656l-46.375,94.25a3.0003,3.0003,0,0,0,2.6875,4.3125h110.69a3.0003,3.0003,0,0,0,2.6875,-4.3125l-46.375-94.25v-36.688c0.65883-0.38497,1.0351-0.35125,1.4062-0.15625,0.53255,0.27979,1.0312,0.9375,1.0312,0.9375l5.0938-3.1562s-1.0844-1.9068-3.3438-3.0938c-2.2593-1.187-6.1338-1.0981-9.2188,1.7188a3.0003,3.0003,0,0,0,-0.96875,2.2188v38.906a3.0003,3.0003,0,0,0,0.3125,1.3438l44.562,90.531h-101.06l44.562-90.531a3.0003,3.0003,0,0,0,0.3125,-1.3438v-38.906a3.0003,3.0003,0,0,0,-0.96875,-2.2188c-1.5456-1.4113-3.2964-2.1453-4.9375-2.375z" style="baseline-shift:baseline;block-progression:tb;color:#000000;direction:ltr;text-indent:0;text-align:start;enable-background:accumulate;text-transform:none;"/>
   <path id="path3785" d="m63.002,188.04a2.5031,2.5031,0,1,0,0.25,5h22.062a2.5002,2.5002,0,1,0,0,-5h-22.062a2.5002,2.5002,0,0,0,-0.25,0z" style="baseline-shift:baseline;block-progression:tb;color:#000000;direction:ltr;text-indent:0;text-align:start;enable-background:accumulate;text-transform:none;"/>
   <path id="path3787" d="m85.314,176.82-16.594,0.0312a2.5002,2.5002,0,1,0,0,5l16.594-0.0312a2.5002,2.5002,0,1,0,0,-5z" style="baseline-shift:baseline;block-progression:tb;color:#000000;direction:ltr;text-indent:0;text-align:start;enable-background:accumulate;text-transform:none;"/>
   <path id="path3789" d="m74.033,165.6a2.5031,2.5031,0,1,0,0.25,5h11.031a2.5002,2.5002,0,1,0,0,-5h-11.031a2.5002,2.5002,0,0,0,-0.25,0z" style="baseline-shift:baseline;block-progression:tb;color:#000000;direction:ltr;text-indent:0;text-align:start;enable-background:accumulate;text-transform:none;"/>
  </g>
  <path id="path2824" d="m113.28,14.799-96.613,0c-1.5412,0-3.0634,0.59936-4.148,1.7125-1.0751,1.0846-1.7125,2.6068-1.7125,4.1575v244.98c0,1.5412,0.59937,3.0159,1.7125,4.1385,1.1131,1.1036,2.5782,1.703,4.148,1.703h174.71c1.5412,0,3.0159-0.58984,4.129-1.703,1.1131-1.1131,1.7315-2.5878,1.7315-4.1385v-163.02c0-34.743-56.931-87.832-83.959-87.832zm71.472,248.96-160.75,0c-5.6069,0.11558-5.4953,0.11556-5.4953-5.3149v-229.31c-0.04072-6.8458,0.12085-6.6298,7.3904-6.6298h87.39v0.01905c11.264,0,12.684,41.726,5.5701,68.276,25.558-6.8482,70.649-7.3629,70.649,11.844v156.56c0.10555,4.581-0.0319,4.5603-4.757,4.5603z"/>
 </g>
</svg>
