<?xml version="1.0" encoding="UTF-8" standalone="no"?>
<!-- Created with Inkscape (http://www.inkscape.org/) -->

<svg
   xmlns:dc="http://purl.org/dc/elements/1.1/"
   xmlns:cc="http://creativecommons.org/ns#"
   xmlns:rdf="http://www.w3.org/1999/02/22-rdf-syntax-ns#"
   xmlns:svg="http://www.w3.org/2000/svg"
   xmlns="http://www.w3.org/2000/svg"
   xmlns:sodipodi="http://sodipodi.sourceforge.net/DTD/sodipodi-0.dtd"
   xmlns:inkscape="http://www.inkscape.org/namespaces/inkscape"
   width="206.43271"
   height="276.6922"
   id="svg2"
   version="1.1"
   inkscape:version="0.48.3.1 r9886"
   sodipodi:docname="unknown_mime_type.svg">
  <defs
     id="defs4">
    <inkscape:perspective
       sodipodi:type="inkscape:persp3d"
       inkscape:vp_x="0 : 0.5 : 1"
       inkscape:vp_y="0 : 1000 : 0"
       inkscape:vp_z="1 : 0.5 : 1"
       inkscape:persp3d-origin="0.5 : 0.33333333 : 1"
       id="perspective2840" />
    <inkscape:perspective
       id="perspective10"
       inkscape:persp3d-origin="81.25 : 54.166667 : 1"
       inkscape:vp_z="162.5 : 81.25 : 1"
       inkscape:vp_y="0 : 1000 : 0"
       inkscape:vp_x="0 : 81.25 : 1"
       sodipodi:type="inkscape:persp3d" />
  </defs>
  <sodipodi:namedview
     id="base"
     pagecolor="#ffffff"
     bordercolor="#666666"
     borderopacity="1.0"
     inkscape:pageopacity="0.0"
     inkscape:pageshadow="2"
     inkscape:zoom="1.9505793"
     inkscape:cx="37.579002"
     inkscape:cy="207.27445"
     inkscape:document-units="px"
     inkscape:current-layer="layer1"
     showgrid="false"
     fit-margin-top="10"
     fit-margin-left="10"
     fit-margin-right="10"
     fit-margin-bottom="10"
     inkscape:window-width="1855"
     inkscape:window-height="1056"
     inkscape:window-x="65"
     inkscape:window-y="24"
     inkscape:window-maximized="1" />
  <metadata
     id="metadata7">
    <rdf:RDF>
      <cc:Work
         rdf:about="">
        <dc:format>image/svg+xml</dc:format>
        <dc:type
           rdf:resource="http://purl.org/dc/dcmitype/StillImage" />
        <dc:title />
      </cc:Work>
    </rdf:RDF>
  </metadata>
  <g
     inkscape:label="Layer 1"
     inkscape:groupmode="layer"
     id="layer1"
     transform="translate(-0.802584,-4.798999)">
    <g
       id="g3977"
       transform="translate(4.0484384,33.208776)">
      <path
         inkscape:connector-curvature="0"
         id="path3773"
         d="m 88.408,69.288156 c -1.64112,-0.22974 -3.18223,0.0599 -4.3125,0.65625 -2.26054,1.19267 -3.34375,3.125 -3.34375,3.125 l 5.125,3.125 c 0,0 0.50423,-0.65944 1.03125,-0.9375 0.37302,-0.19681 0.719,-0.22746 1.40625,0.1875 l 0,36.656254 -46.375,94.25002 a 3.0003,3.0003 0 0 0 2.6875,4.3125 l 110.6875,0 a 3.0003,3.0003 0 0 0 2.6875,-4.3125 l -46.375,-94.25002 0,-36.687504 c 0.65883,-0.38497 1.03509,-0.35125 1.40625,-0.15625 0.53255,0.27979 1.03125,0.9375 1.03125,0.9375 l 5.09375,-3.15625 c 0,0 -1.08443,-1.90675 -3.34375,-3.09375 -2.25932,-1.187 -6.13382,-1.09814 -9.21875,1.71875 a 3.0003,3.0003 0 0 0 -0.96875,2.21875 l 0,38.906254 a 3.0003,3.0003 0 0 0 0.3125,1.34375 l 44.5625,90.53127 -101.0625,0 44.5625,-90.53127 a 3.0003,3.0003 0 0 0 0.3125,-1.34375 l 0,-38.906254 a 3.0003,3.0003 0 0 0 -0.96875,-2.21875 c -1.54558,-1.41129 -3.29638,-2.14526 -4.9375,-2.375 z"
         style="font-size:medium;font-style:normal;font-variant:normal;font-weight:normal;font-stretch:normal;text-indent:0;text-align:start;text-decoration:none;line-height:normal;letter-spacing:normal;word-spacing:normal;text-transform:none;direction:ltr;block-progression:tb;writing-mode:lr-tb;text-anchor:start;baseline-shift:baseline;color:#000000;fill:#cccccc;fill-opacity:1;stroke:none;stroke-width:4;marker:none;visibility:visible;display:inline;overflow:visible;enable-background:accumulate;font-family:Sans;-inkscape-font-specification:Sans" />
      <path
         inkscape:connector-curvature="0"
         id="path3785"
         d="m 63.00175,188.03816 a 2.503123,2.503123 0 1 0 0.25,5 l 22.0625,0 a 2.50025,2.50025 0 1 0 0,-5 l -22.0625,0 a 2.50025,2.50025 0 0 0 -0.25,0 z"
         style="font-size:medium;font-style:normal;font-variant:normal;font-weight:normal;font-stretch:normal;text-indent:0;text-align:start;text-decoration:none;line-height:normal;letter-spacing:normal;word-spacing:normal;text-transform:none;direction:ltr;block-progression:tb;writing-mode:lr-tb;text-anchor:start;baseline-shift:baseline;color:#000000;fill:#cccccc;fill-opacity:1;stroke:none;stroke-width:4;marker:none;visibility:visible;display:inline;overflow:visible;enable-background:accumulate;font-family:Sans;-inkscape-font-specification:Sans" />
      <path
         inkscape:connector-curvature="0"
         id="path3787"
         d="m 85.31425,176.81941 -16.59375,0.0312 a 2.50025,2.50025 0 1 0 0,5 l 16.59375,-0.0312 a 2.50025,2.50025 0 1 0 0,-5 z"
         style="font-size:medium;font-style:normal;font-variant:normal;font-weight:normal;font-stretch:normal;text-indent:0;text-align:start;text-decoration:none;line-height:normal;letter-spacing:normal;word-spacing:normal;text-transform:none;direction:ltr;block-progression:tb;writing-mode:lr-tb;text-anchor:start;baseline-shift:baseline;color:#000000;fill:#cccccc;fill-opacity:1;stroke:none;stroke-width:4;marker:none;visibility:visible;display:inline;overflow:visible;enable-background:accumulate;font-family:Sans;-inkscape-font-specification:Sans" />
      <path
         inkscape:connector-curvature="0"
         id="path3789"
         d="m 74.033,165.60066 a 2.503123,2.503123 0 1 0 0.25,5 l 11.03125,0 a 2.50025,2.50025 0 1 0 0,-5 l -11.03125,0 a 2.50025,2.50025 0 0 0 -0.25,0 z"
         style="font-size:medium;font-style:normal;font-variant:normal;font-weight:normal;font-stretch:normal;text-indent:0;text-align:start;text-decoration:none;line-height:normal;letter-spacing:normal;word-spacing:normal;text-transform:none;direction:ltr;block-progression:tb;writing-mode:lr-tb;text-anchor:start;baseline-shift:baseline;color:#000000;fill:#cccccc;fill-opacity:1;stroke:none;stroke-width:4;marker:none;visibility:visible;display:inline;overflow:visible;enable-background:accumulate;font-family:Sans;-inkscape-font-specification:Sans" />
    </g>
    <path
       id="path2824"
       d="m 113.27587,14.798999 -96.612776,0 c -1.54124,0 -3.063448,0.599365 -4.148025,1.712477 -1.07506,1.084583 -1.712485,2.606786 -1.712485,4.157535 l 0,244.980729 c 0,1.54122 0.59937,3.01586 1.712485,4.1385 1.113117,1.1036 2.578245,1.70297 4.148025,1.70297 l 174.711706,0 c 1.54122,0 3.01588,-0.58984 4.12899,-1.70297 1.11309,-1.11313 1.73151,-2.58777 1.73151,-4.1385 l 0,-163.01921 c 0,-34.743121 -56.93081,-87.831531 -83.95943,-87.831531 z m 71.4717,248.961681 -160.747662,0 c -5.60694,0.11558 -5.495332,0.11556 -5.495332,-5.31492 l 0,-229.314927 c -0.04072,-6.845799 0.120853,-6.629847 7.390407,-6.629847 l 87.390407,0 0,0.01905 c 11.2636,0 12.6842,41.725748 5.57007,68.276031 25.55767,-6.848156 70.64914,-7.362897 70.64914,11.843993 l 0,156.56031 c 0.10555,4.58101 -0.0319,4.56031 -4.75703,4.56031 z"
       style="fill:#cccccc;fill-opacity:1;stroke:none"
       inkscape:connector-curvature="0"
       sodipodi:nodetypes="cscsscssssccccccccccccc" />
  </g>
</svg>
